<svg width="324" height="72" viewBox="0 0 324 72" fill="none" xmlns="http://www.w3.org/2000/svg">
<path d="M95.3155 47.7894C95.3155 49.3424 94.9965 50.5356 94.3589 51.3692C93.7378 52.203 92.6996 52.6198 91.2445 52.6198C89.871 52.6198 88.8983 52.203 88.3259 51.3692C87.7701 50.5356 87.4922 49.3424 87.4922 47.7894V21.8724C87.4922 20.3194 87.7701 19.1262 88.3259 18.2925C88.8983 17.4588 89.871 17.042 91.2445 17.042C92.6996 17.042 93.7378 17.4588 94.3589 18.2925C94.9965 19.1262 95.3155 20.3194 95.3155 21.8724V47.7894Z" fill="#252525" fill-opacity="0.6"/>
<path d="M97.6914 40.262C97.6914 38.5292 97.9693 36.8946 98.5254 35.358C99.0975 33.8051 99.9476 32.4484 101.076 31.2878C102.22 30.1272 103.643 29.2036 105.343 28.5171C107.06 27.8304 109.071 27.4873 111.376 27.4873C113.583 27.4873 115.537 27.806 117.237 28.4435C118.938 29.081 120.368 29.9719 121.529 31.1162C122.69 32.244 123.573 33.5925 124.178 35.1618C124.783 36.7147 125.085 38.4147 125.085 40.262C125.085 41.9784 124.799 43.6047 124.227 45.1413C123.655 46.6614 122.796 48.002 121.652 49.1626C120.507 50.3067 119.077 51.2221 117.36 51.9088C115.643 52.5789 113.649 52.9139 111.376 52.9139C109.136 52.9139 107.158 52.5953 105.441 51.9577C103.741 51.3039 102.31 50.413 101.149 49.285C100.005 48.1409 99.1383 46.8005 98.5498 45.2639C97.9775 43.711 97.6914 42.0436 97.6914 40.262ZM105.858 40.262C105.858 41.3408 105.956 42.3707 106.152 43.3513C106.348 44.3157 106.659 45.1658 107.084 45.9015C107.526 46.6369 108.098 47.2255 108.801 47.6668C109.504 48.0917 110.362 48.3043 111.376 48.3043C112.308 48.3043 113.117 48.1083 113.804 47.7157C114.507 47.3236 115.079 46.7759 115.521 46.073C115.978 45.3702 116.322 44.5283 116.551 43.5476C116.78 42.5504 116.894 41.4553 116.894 40.262C116.894 39.183 116.788 38.1613 116.575 37.197C116.379 36.2163 116.06 35.358 115.619 34.6224C115.177 33.8706 114.605 33.282 113.902 32.8571C113.215 32.4158 112.373 32.195 111.376 32.195C110.379 32.195 109.529 32.4074 108.825 32.8326C108.122 33.2575 107.55 33.8377 107.109 34.5734C106.667 35.3091 106.348 36.1671 106.152 37.148C105.956 38.1287 105.858 39.1667 105.858 40.262Z" fill="#252525" fill-opacity="0.6"/>
<path d="M145.216 47.8874C144.774 48.7046 144.235 49.3993 143.597 49.9716C142.976 50.5436 142.281 51.0177 141.513 51.3937C140.761 51.7532 139.951 52.0229 139.085 52.2028C138.234 52.3662 137.36 52.448 136.461 52.448C134.956 52.448 133.583 52.1783 132.341 51.6387C131.098 51.0993 130.027 50.3229 129.128 49.3095C128.245 48.2797 127.558 47.021 127.068 45.5335C126.577 44.0459 126.332 42.3458 126.332 40.4335C126.332 38.6353 126.561 36.9516 127.019 35.3824C127.477 33.8131 128.139 32.4483 129.005 31.2877C129.888 30.1271 130.967 29.2117 132.243 28.5415C133.518 27.8713 134.973 27.5361 136.608 27.5361C138.472 27.5361 140.123 27.8958 141.562 28.6149C143.017 29.3343 144.268 30.5112 145.314 32.1457V31.5084C145.314 30.3315 145.633 29.4487 146.27 28.8602C146.924 28.2555 147.824 27.9529 148.968 27.9529C149.655 27.9529 150.235 28.0674 150.709 28.2963C151.183 28.5089 151.559 28.8357 151.837 29.2772C152.115 29.7021 152.312 30.2334 152.426 30.8709C152.557 31.4919 152.622 32.2031 152.622 33.004V49.4322C152.622 51.4263 152.369 53.208 151.862 54.7772C151.371 56.3465 150.603 57.6707 149.557 58.7495C148.51 59.8283 147.17 60.6456 145.535 61.2015C143.9 61.7735 141.954 62.0596 139.698 62.0596C138.112 62.0596 136.706 61.9861 135.48 61.8388C134.27 61.7083 133.223 61.5038 132.341 61.226C131.458 60.9153 130.787 60.5721 130.33 60.1961C129.888 59.8201 129.667 59.3297 129.667 58.725C129.667 58.3817 129.716 58.0548 129.815 57.7441C129.913 57.4336 130.06 57.1558 130.256 56.9106C130.469 56.6817 130.738 56.4938 131.065 56.3465C131.409 56.2159 131.825 56.1504 132.316 56.1504C132.839 56.1504 133.362 56.1831 133.886 56.2485C134.425 56.3138 134.981 56.3793 135.553 56.4446C136.142 56.5264 136.755 56.5998 137.393 56.6653C138.047 56.7306 138.75 56.7635 139.502 56.7635C140.401 56.7635 141.202 56.6735 141.905 56.4938C142.608 56.3138 143.205 55.9952 143.695 55.5374C144.186 55.0798 144.562 54.4667 144.823 53.6984C145.085 52.9464 145.216 51.9821 145.216 50.8051V47.8874ZM145.216 40.2619C145.216 39.0684 145.126 37.9815 144.946 37.0008C144.783 36.0199 144.496 35.1863 144.088 34.4996C143.679 33.7968 143.131 33.2574 142.445 32.8814C141.758 32.4891 140.9 32.293 139.87 32.293C138.856 32.293 138.014 32.4973 137.344 32.9059C136.69 33.3145 136.166 33.8786 135.774 34.5977C135.382 35.3171 135.104 36.1588 134.94 37.1234C134.793 38.0877 134.72 39.1176 134.72 40.2127C134.72 42.7137 135.161 44.5936 136.044 45.8522C136.927 47.1109 138.21 47.7403 139.894 47.7403C140.679 47.724 141.39 47.5767 142.028 47.2988C142.682 47.0046 143.246 46.5552 143.72 45.9503C144.194 45.3454 144.562 44.5771 144.823 43.6454C145.085 42.7137 145.216 41.5859 145.216 40.2619Z" fill="#252525" fill-opacity="0.6"/>
<path d="M154.875 40.262C154.875 38.5292 155.153 36.8946 155.709 35.358C156.281 33.8051 157.131 32.4484 158.259 31.2878C159.404 30.1272 160.826 29.2036 162.526 28.5171C164.243 27.8304 166.254 27.4873 168.56 27.4873C170.767 27.4873 172.72 27.806 174.421 28.4435C176.121 29.081 177.552 29.9719 178.713 31.1162C179.873 32.244 180.756 33.5925 181.361 35.1618C181.966 36.7147 182.269 38.4147 182.269 40.262C182.269 41.9784 181.982 43.6047 181.41 45.1413C180.838 46.6614 179.98 48.002 178.835 49.1626C177.691 50.3067 176.26 51.2221 174.543 51.9088C172.827 52.5789 170.832 52.9139 168.56 52.9139C166.32 52.9139 164.341 52.5953 162.625 51.9577C160.924 51.3039 159.494 50.413 158.333 49.285C157.189 48.1409 156.322 46.8005 155.733 45.2639C155.161 43.711 154.875 42.0436 154.875 40.262ZM163.042 40.262C163.042 41.3408 163.14 42.3707 163.336 43.3513C163.532 44.3157 163.843 45.1658 164.268 45.9015C164.709 46.6369 165.281 47.2255 165.985 47.6668C166.687 48.0917 167.546 48.3043 168.56 48.3043C169.492 48.3043 170.301 48.1083 170.987 47.7157C171.69 47.3236 172.263 46.7759 172.704 46.073C173.162 45.3702 173.505 44.5283 173.734 43.5476C173.963 42.5504 174.078 41.4553 174.078 40.262C174.078 39.183 173.971 38.1613 173.759 37.197C173.563 36.2163 173.244 35.358 172.802 34.6224C172.361 33.8706 171.789 33.282 171.086 32.8571C170.399 32.4158 169.557 32.195 168.56 32.195C167.562 32.195 166.712 32.4074 166.009 32.8326C165.306 33.2575 164.734 33.8377 164.292 34.5734C163.851 35.3091 163.532 36.1671 163.336 37.148C163.14 38.1287 163.042 39.1667 163.042 40.262Z" fill="#252525" fill-opacity="0.6"/>
<path d="M192.784 19.2241C192.784 19.7635 192.662 20.2457 192.417 20.6707C192.171 21.0794 191.853 21.4226 191.46 21.7006C191.068 21.9785 190.61 22.1909 190.087 22.338C189.58 22.4687 189.057 22.5342 188.517 22.5342C187.945 22.5342 187.397 22.4606 186.874 22.3135C186.367 22.1664 185.918 21.954 185.525 21.676C185.133 21.3818 184.822 21.0303 184.593 20.6217C184.364 20.213 184.25 19.7472 184.25 19.2241C184.25 18.75 184.356 18.3169 184.569 17.9246C184.798 17.5159 185.1 17.1645 185.476 16.8702C185.852 16.576 186.302 16.3471 186.825 16.1837C187.348 16.0202 187.92 15.9385 188.542 15.9385C189.081 15.9385 189.604 16.012 190.111 16.1592C190.635 16.3063 191.092 16.5188 191.485 16.7967C191.877 17.0745 192.188 17.4178 192.417 17.8265C192.662 18.2351 192.784 18.701 192.784 19.2241ZM192.417 47.7893C192.417 49.3422 192.098 50.5355 191.46 51.369C190.839 52.2028 189.801 52.6196 188.345 52.6196C186.972 52.6196 185.999 52.2028 185.427 51.369C184.871 50.5355 184.593 49.3422 184.593 47.7893V32.7833C184.593 31.2304 184.871 30.0371 185.427 29.2035C185.999 28.3699 186.972 27.9529 188.345 27.9529C189.801 27.9529 190.839 28.3699 191.46 29.2035C192.098 30.0371 192.417 31.2304 192.417 32.7833V47.7893Z" fill="#252525" fill-opacity="0.6"/>
<path d="M203.695 40.2127C203.695 41.3081 203.777 42.3295 203.941 43.2778C204.12 44.2258 204.415 45.0594 204.823 45.7787C205.249 46.4815 205.805 47.0373 206.491 47.4459C207.194 47.8547 208.061 48.059 209.091 48.059C210.039 48.059 210.832 47.8629 211.47 47.4706C212.123 47.062 212.646 46.506 213.04 45.8032C213.431 45.0839 213.709 44.2421 213.873 43.2778C214.053 42.3132 214.143 41.267 214.143 40.1393C214.143 39.2402 214.078 38.3248 213.946 37.3931C213.816 36.4449 213.571 35.5868 213.211 34.8185C212.851 34.0502 212.353 33.4208 211.715 32.9304C211.077 32.4401 210.244 32.1949 209.213 32.1949C208.183 32.1949 207.309 32.3583 206.589 32.6854C205.886 33.0122 205.314 33.5108 204.873 34.181C204.447 34.8511 204.145 35.6931 203.965 36.7064C203.785 37.7036 203.695 38.8724 203.695 40.2127ZM203.671 32.7833C204.08 31.9171 204.603 31.1569 205.241 30.5031C205.878 29.8492 206.581 29.3016 207.35 28.8602C208.118 28.4189 208.919 28.0919 209.753 27.8795C210.604 27.6506 211.445 27.5361 212.278 27.5361C213.783 27.5361 215.141 27.8713 216.35 28.5415C217.56 29.2117 218.59 30.1271 219.439 31.2877C220.306 32.432 220.969 33.7886 221.427 35.3579C221.884 36.9108 222.114 38.5782 222.114 40.3598C222.114 42.2069 221.867 43.8988 221.377 45.4354C220.904 46.972 220.224 48.296 219.341 49.4075C218.475 50.5028 217.428 51.3609 216.202 51.9821C214.992 52.6033 213.645 52.9138 212.157 52.9138C210.325 52.9138 208.69 52.4888 207.251 51.6387C205.813 50.7888 204.619 49.5956 203.671 48.059V56.8861C203.671 58.4388 203.352 59.6323 202.714 60.4658C202.093 61.2994 201.055 61.7164 199.6 61.7164C198.226 61.7164 197.254 61.2994 196.681 60.4658C196.126 59.6323 195.848 58.4388 195.848 56.8861V32.7833C195.848 31.2304 196.126 30.0371 196.681 29.2035C197.254 28.3699 198.226 27.9529 199.6 27.9529C201.055 27.9529 202.093 28.3699 202.714 29.2035C203.352 30.0371 203.671 31.2304 203.671 32.7833Z" fill="#252525" fill-opacity="0.6"/>
<path d="M230.741 34.5244C230.741 35.1618 231.019 35.6604 231.574 36.02C232.13 36.3634 232.898 36.6494 233.88 36.8783C234.811 37.0907 235.767 37.2951 236.749 37.4911C237.73 37.6874 238.687 37.9163 239.618 38.1779C240.549 38.4229 241.424 38.7173 242.242 39.0604C243.059 39.4037 243.779 39.8369 244.4 40.3599C245.022 40.8667 245.511 41.4879 245.871 42.2234C246.231 42.9427 246.411 43.8091 246.411 44.8225C246.411 46.0975 246.15 47.2337 245.626 48.2307C245.103 49.2115 244.36 50.0451 243.396 50.7318C242.448 51.4183 241.311 51.9496 239.986 52.3256C238.662 52.7015 237.199 52.8976 235.596 52.9139C234.077 52.9139 232.612 52.816 231.205 52.6197C229.801 52.44 228.55 52.1538 227.453 51.7615C226.375 51.3692 225.509 50.8871 224.854 50.3148C224.201 49.7265 223.874 49.04 223.874 48.2553C223.874 47.5686 224.094 47.0374 224.536 46.6614C224.977 46.2856 225.54 46.0975 226.229 46.0975C226.49 46.0975 226.8 46.1465 227.16 46.2446C227.52 46.3427 227.911 46.4654 228.336 46.6124C228.761 46.7595 229.211 46.923 229.686 47.1029C230.176 47.2663 230.682 47.4134 231.205 47.5442C231.86 47.7241 232.53 47.8712 233.216 47.9856C233.92 48.0836 234.64 48.1327 235.376 48.1327C235.832 48.1327 236.282 48.0917 236.724 48.0101C237.165 47.912 237.559 47.7731 237.902 47.5933C238.262 47.3971 238.555 47.1518 238.785 46.8577C239.013 46.5635 239.151 46.2038 239.202 45.7789C239.25 45.6807 239.292 45.5826 239.323 45.4845C239.357 45.3866 239.373 45.2721 239.373 45.1413C239.373 44.6835 239.16 44.2749 238.735 43.9152C238.327 43.5558 237.745 43.2695 236.994 43.0572C235.734 42.763 234.533 42.4933 233.388 42.2481C232.245 42.0028 231.182 41.7413 230.201 41.4634C229.236 41.1856 228.353 40.8667 227.551 40.507C226.767 40.1476 226.097 39.7061 225.54 39.183C225.002 38.6599 224.576 38.0306 224.266 37.2951C223.971 36.5594 223.824 35.6685 223.824 34.6224C223.824 33.4946 224.077 32.4892 224.584 31.6065C225.107 30.7074 225.852 29.9556 226.817 29.3507C227.782 28.7458 228.949 28.2882 230.324 27.9777C231.697 27.6507 233.25 27.4873 234.983 27.4873C238.088 27.4873 240.451 27.8633 242.071 28.6151C243.705 29.3507 244.524 30.3151 244.524 31.5086C244.524 32.1787 244.302 32.6936 243.86 33.0531C243.419 33.3965 242.887 33.568 242.268 33.568C241.939 33.568 241.596 33.5109 241.236 33.3965C240.893 33.2657 240.476 33.1268 239.986 32.9797C239.495 32.8163 238.907 32.6773 238.22 32.5629C237.551 32.4321 236.715 32.3666 235.719 32.3666C234.966 32.3666 234.28 32.3993 233.658 32.4647C233.053 32.53 232.53 32.6445 232.088 32.8079C231.664 32.9715 231.329 33.192 231.084 33.4701C230.854 33.748 230.741 34.0993 230.741 34.5244Z" fill="#252525" fill-opacity="0.6"/>
<path d="M256.366 43.523C256.366 44.2913 256.464 44.9615 256.661 45.5337C256.872 46.1058 257.159 46.588 257.519 46.9804C257.879 47.3563 258.295 47.6424 258.768 47.8384C259.26 48.0184 259.783 48.1083 260.338 48.1083C260.993 48.1083 261.623 48.0102 262.227 47.8139C262.832 47.6179 263.364 47.3153 263.822 46.9067C264.295 46.4981 264.672 45.9831 264.95 45.3619C265.226 44.7409 265.367 44.0134 265.367 43.1798V32.7835C265.367 31.2305 265.645 30.0373 266.199 29.2037C266.773 28.3701 267.746 27.9531 269.119 27.9531C270.573 27.9531 271.611 28.3701 272.233 29.2037C272.871 30.0373 273.189 31.2305 273.189 32.7835V47.7895C273.189 49.3424 272.871 50.5356 272.233 51.3692C271.611 52.203 270.573 52.6198 269.119 52.6198C267.746 52.6198 266.773 52.203 266.199 51.3692C265.645 50.5356 265.367 49.3424 265.367 47.7895C265.023 48.5414 264.573 49.2279 264.017 49.8491C263.477 50.4704 262.841 51.0098 262.104 51.4673C261.384 51.9088 260.585 52.252 259.701 52.4972C258.835 52.7424 257.893 52.865 256.88 52.865C255.786 52.865 254.731 52.6769 253.716 52.3011C252.72 51.9088 251.837 51.3366 251.069 50.5846C250.301 49.8165 249.688 48.8683 249.229 47.7405C248.771 46.6125 248.543 45.2967 248.543 43.7927V32.7835C248.543 31.2305 248.821 30.0373 249.376 29.2037C249.949 28.3701 250.92 27.9531 252.295 27.9531C253.75 27.9531 254.788 28.3701 255.409 29.2037C256.048 30.0373 256.366 31.2305 256.366 32.7835V43.523Z" fill="#252525" fill-opacity="0.6"/>
<path d="M276.738 32.7833C276.738 31.2304 277.017 30.0371 277.573 29.2035C278.145 28.3699 279.118 27.9529 280.491 27.9529C281.947 27.9529 282.985 28.3699 283.607 29.2035C284.243 30.0371 284.563 31.2304 284.563 32.7833C284.89 31.9987 285.331 31.2877 285.888 30.6501C286.459 29.9963 287.106 29.4406 287.824 28.9828C288.56 28.5252 289.353 28.1737 290.203 27.9284C291.053 27.6669 291.936 27.5361 292.852 27.5361C293.702 27.5361 294.535 27.6506 295.353 27.8795C296.186 28.0919 296.956 28.4434 297.659 28.9338C298.377 29.4077 299.007 30.0126 299.547 30.7483C300.087 31.4837 300.503 32.3665 300.799 33.3963C301.305 32.3012 301.901 31.3777 302.588 30.6257C303.274 29.8737 304.019 29.2688 304.819 28.8112C305.62 28.3534 306.455 28.0266 307.322 27.8303C308.205 27.6343 309.086 27.5361 309.969 27.5361C311.015 27.5361 312.014 27.7242 312.962 28.1C313.926 28.476 314.768 29.0483 315.487 29.8166C316.224 30.5683 316.804 31.5247 317.229 32.6854C317.67 33.8294 317.89 35.17 317.89 36.7064V47.7893C317.89 49.3422 317.572 50.5354 316.934 51.369C316.314 52.2028 315.274 52.6196 313.82 52.6196C312.447 52.6196 311.474 52.2028 310.902 51.369C310.346 50.5354 310.067 49.3422 310.067 47.7893V37.0497C310.067 36.3141 309.969 35.6602 309.774 35.0882C309.578 34.4996 309.299 34.0094 308.939 33.6171C308.596 33.2084 308.188 32.9059 307.713 32.7098C307.24 32.4973 306.731 32.391 306.194 32.391C305.522 32.391 304.886 32.4973 304.281 32.7098C303.676 32.9222 303.144 33.2492 302.686 33.6905C302.245 34.132 301.885 34.6959 301.606 35.3824C301.345 36.0689 301.215 36.8945 301.215 37.8588V47.7893C301.215 49.3422 300.895 50.5354 300.259 51.369C299.637 52.2028 298.599 52.6196 297.143 52.6196C295.77 52.6196 294.797 52.2028 294.225 51.369C293.669 50.5354 293.39 49.3422 293.39 47.7893V37.5155C293.39 35.832 293.039 34.5569 292.338 33.6905C291.649 32.8243 290.709 32.391 289.517 32.391C288.813 32.391 288.158 32.5054 287.554 32.7343C286.949 32.9632 286.426 33.2982 285.984 33.7397C285.542 34.181 285.191 34.7285 284.929 35.3824C284.684 36.0362 284.563 36.7882 284.563 37.6381V47.7893C284.563 49.3422 284.243 50.5354 283.607 51.369C282.985 52.2028 281.947 52.6196 280.491 52.6196C279.118 52.6196 278.145 52.2028 277.573 51.369C277.017 50.5354 276.738 49.3422 276.738 47.7893V32.7833Z" fill="#252525" fill-opacity="0.6"/>
<path d="M36.49 48.4351C29.5553 48.4351 23.9336 42.8145 23.9336 35.8811C23.9336 28.9478 29.5553 23.3271 36.49 23.3271C43.4248 23.3271 49.0465 28.9478 49.0465 35.8811C49.0465 42.8145 43.4248 48.4351 36.49 48.4351Z" fill="#252525" fill-opacity="0.6"/>
<path d="M12.165 40.1691C8.52622 40.8106 6.03204 44.3249 7.42884 47.745C9.37894 52.5197 12.4901 56.7739 16.5234 60.0982C22.2908 64.8513 29.5652 67.3912 37.0384 67.2608C44.5116 67.1305 51.693 64.3383 57.2911 59.3865C61.2058 55.9237 64.1666 51.5635 65.949 46.7238C67.2256 43.257 64.61 39.8318 60.9511 39.3178C57.2924 38.8037 54.0072 41.4664 52.1999 44.6886C51.2203 46.435 49.9485 48.0195 48.425 49.3672C45.2131 52.2084 41.0927 53.8103 36.805 53.8852C32.5172 53.9599 28.3435 52.5028 25.0344 49.7754C23.4647 48.4817 22.1385 46.9426 21.0984 45.2313C19.1798 42.0742 15.8037 39.5276 12.165 40.1691Z" fill="#252525" fill-opacity="0.6"/>
<path d="M67.6371 39.8031C67.7974 38.5182 67.8799 37.2092 67.8799 35.881C67.8799 18.5476 53.8257 4.49609 36.4888 4.49609C19.1519 4.49609 5.09766 18.5476 5.09766 35.881C5.09766 37.5857 5.23358 39.2585 5.49519 40.8894C6.93705 38.916 9.18742 37.5072 11.6181 37.0787C14.2481 36.615 16.6382 37.2528 18.6592 38.4448C18.5398 37.6074 18.478 36.7514 18.478 35.881C18.478 25.936 26.5418 17.8738 36.4888 17.8738C46.4358 17.8738 54.4995 25.936 54.4995 35.881C54.4995 36.5368 54.4644 37.1843 54.3962 37.8219C56.3744 36.5596 58.7413 35.8384 61.3863 36.2102C63.8298 36.5535 66.1272 37.8821 67.6371 39.8031Z" fill="#252525" fill-opacity="0.6"/>
</svg>
