<svg width="330" height="81" viewBox="0 0 330 81" fill="none" xmlns="http://www.w3.org/2000/svg">
<g clip-path="url(#clip0_1874_93)">
<path d="M96.0898 56.773H119.618V49.6748H104.452V22.9385H96.0898V56.773Z" fill="#252525" fill-opacity="0.6"/>
<path d="M133.558 52.0406C130.204 52.0406 128.456 49.1067 128.456 44.7058C128.456 40.305 130.204 37.3237 133.558 37.3237C136.913 37.3237 138.708 40.305 138.708 44.7058C138.708 49.1067 136.913 52.0406 133.558 52.0406ZM133.605 57.5298C141.401 57.5298 146.503 51.9932 146.503 44.7058C146.503 37.4184 141.401 31.8818 133.605 31.8818C125.857 31.8818 120.66 37.4184 120.66 44.7058C120.66 51.9932 125.857 57.5298 133.605 57.5298Z" fill="#252525" fill-opacity="0.6"/>
<path d="M159.999 65.1479C163.59 65.1479 166.755 64.3435 168.881 62.4507C170.818 60.6998 172.094 58.0498 172.094 54.4061V32.5438H164.724V35.1465H164.629C163.212 33.1117 161.038 31.834 157.826 31.834C151.826 31.834 147.668 36.85 147.668 43.9482C147.668 51.3775 152.723 55.4471 158.156 55.4471C161.086 55.4471 162.928 54.2641 164.346 52.6552H164.535V55.0686C164.535 58.0025 163.164 59.706 159.905 59.706C157.353 59.706 156.078 58.6177 155.652 57.34H148.188C148.944 62.4033 153.337 65.1479 159.999 65.1479ZM159.952 49.7213C157.07 49.7213 155.18 47.3553 155.18 43.7115C155.18 40.0205 157.07 37.6545 159.952 37.6545C163.164 37.6545 164.865 40.3991 164.865 43.6642C164.865 47.0713 163.306 49.7213 159.952 49.7213Z" fill="#252525" fill-opacity="0.6"/>
<path d="M187.25 52.0406C183.895 52.0406 182.147 49.1067 182.147 44.7058C182.147 40.305 183.895 37.3237 187.25 37.3237C190.604 37.3237 192.399 40.305 192.399 44.7058C192.399 49.1067 190.604 52.0406 187.25 52.0406ZM187.297 57.5298C195.092 57.5298 200.195 51.9932 200.195 44.7058C200.195 37.4184 195.092 31.8818 187.297 31.8818C179.549 31.8818 174.352 37.4184 174.352 44.7058C174.352 51.9932 179.549 57.5298 187.297 57.5298Z" fill="#252525" fill-opacity="0.6"/>
<path d="M202.441 56.773H210.142V32.5446H202.441V56.773ZM202.441 29.1848H210.142V22.9385H202.441V29.1848Z" fill="#252525" fill-opacity="0.6"/>
<path d="M213.484 64.7694H221.185V54.2641H221.28C222.792 56.2989 225.012 57.5293 228.13 57.5293C234.461 57.5293 238.666 52.5133 238.666 44.658C238.666 37.3705 234.745 31.834 228.319 31.834C225.012 31.834 222.65 33.3009 220.996 35.4777H220.855V32.5438H213.484V64.7694ZM226.146 51.5668C222.839 51.5668 220.949 48.8695 220.949 44.9419C220.949 41.0143 222.65 38.033 226.004 38.033C229.312 38.033 230.871 40.7777 230.871 44.9419C230.871 49.0588 229.075 51.5668 226.146 51.5668Z" fill="#252525" fill-opacity="0.6"/>
<path d="M251.206 57.5293C257.536 57.5293 262.214 54.7847 262.214 49.4847C262.214 43.2857 257.206 42.1973 252.954 41.4875C249.883 40.9196 247.142 40.683 247.142 38.9795C247.142 37.4652 248.607 36.7554 250.497 36.7554C252.623 36.7554 254.087 37.4179 254.371 39.5946H261.458C261.08 34.8152 257.395 31.834 250.544 31.834C244.827 31.834 240.103 34.484 240.103 39.5946C240.103 45.2731 244.591 46.4088 248.796 47.1187C252.009 47.6865 254.938 47.9231 254.938 50.0999C254.938 51.6615 253.473 52.5133 251.158 52.5133C248.607 52.5133 247.001 51.3302 246.717 48.9169H239.441C239.678 54.2641 244.119 57.5293 251.206 57.5293Z" fill="#252525" fill-opacity="0.6"/>
<path d="M272.672 57.4821C276.027 57.4821 278.153 56.1571 279.901 53.7911H280.042V56.7723H287.413V32.5439H279.712V46.0777C279.712 48.9643 278.105 50.9518 275.46 50.9518C273.003 50.9518 271.822 49.4849 271.822 46.8349V32.5439H264.168V48.4438C264.168 53.8384 267.097 57.4821 272.672 57.4821Z" fill="#252525" fill-opacity="0.6"/>
<path d="M290.762 56.7721H298.463V43.191C298.463 40.3044 299.88 38.2696 302.29 38.2696C304.605 38.2696 305.691 39.7839 305.691 42.3866V56.7721H313.392V43.191C313.392 40.3044 314.762 38.2696 317.219 38.2696C319.534 38.2696 320.621 39.7839 320.621 42.3866V56.7721H328.322V41.0143C328.322 35.5723 325.582 31.834 320.101 31.834C316.983 31.834 314.384 33.159 312.495 36.0929H312.4C311.172 33.4902 308.762 31.834 305.597 31.834C302.101 31.834 299.786 33.4902 298.274 35.9982H298.132V32.5438H290.762V56.7721Z" fill="#252525" fill-opacity="0.6"/>
<path fill-rule="evenodd" clip-rule="evenodd" d="M17.3951 7.67304C14.5788 9.64545 12.0321 11.9775 9.82129 14.6027C18.8556 13.7626 30.3334 15.1343 43.6589 21.8078C57.8889 28.934 69.3474 29.1749 77.3221 27.6342C76.5984 25.4399 75.6874 23.331 74.6084 21.3261C65.4796 22.2905 53.7765 21.014 40.1376 14.1838C31.4767 9.84647 23.8422 8.05977 17.3951 7.67304ZM69.2758 13.7238C62.0667 5.65624 51.5903 0.579102 39.9297 0.579102C36.5054 0.579102 33.1828 1.01703 30.0154 1.83997C34.3053 3.01236 38.8625 4.72754 43.6589 7.12964C53.6446 12.1304 62.2658 13.7406 69.2758 13.7238ZM79.027 35.3365C69.3929 37.242 56.0892 36.8506 40.1376 28.862C25.2246 21.3936 13.3551 21.4876 5.34987 23.2695C4.93667 23.3613 4.53319 23.458 4.13946 23.5585C3.09138 25.8416 2.25477 28.2423 1.65449 30.7353C2.29562 30.5638 2.95813 30.4007 3.64167 30.2485C13.3534 28.0869 27.0752 28.1808 43.6589 36.486C58.5721 43.9544 70.4416 43.8604 78.4469 42.0786C78.7211 42.0176 78.9914 41.9545 79.2572 41.8895C79.2863 41.2678 79.3009 40.6422 79.3009 40.0132C79.3009 38.4309 79.208 36.8703 79.027 35.3365ZM77.9717 50.2115C68.4311 51.8821 55.5148 51.2409 40.1376 43.5402C25.2246 36.0718 13.3551 36.1658 5.34987 37.9476C3.57295 38.343 1.97446 38.8246 0.564362 39.3332C0.560517 39.5593 0.558594 39.7861 0.558594 40.0132C0.558594 61.7921 18.1856 79.4473 39.9297 79.4473C58.1528 79.4473 73.4844 67.0471 77.9717 50.2115Z" fill="#252525" fill-opacity="0.6"/>
</g>
<defs>
<clipPath id="clip0_1874_93">
<rect width="328.749" height="80.84" fill="white" transform="translate(0.359375)"/>
</clipPath>
</defs>
</svg>
