<svg width="10" height="16" viewBox="0 0 10 16" fill="none" xmlns="http://www.w3.org/2000/svg">
<path d="M9.44437 0.693372C9.44437 0.581636 9.39999 0.474477 9.32098 0.395468C9.24197 0.316459 9.13481 0.272072 9.02307 0.272072H6.91658C5.85585 0.219233 4.81732 0.588377 4.02791 1.29885C3.2385 2.00932 2.76238 3.00335 2.70358 4.06377V6.33879H0.597081C0.485345 6.33879 0.378186 6.38317 0.299177 6.46218C0.220168 6.54119 0.175781 6.64835 0.175781 6.76009V8.95085C0.175781 9.06258 0.220168 9.16974 0.299177 9.24875C0.378186 9.32776 0.485345 9.37215 0.597081 9.37215H2.70358V15.0176C2.70358 15.1293 2.74797 15.2365 2.82697 15.3155C2.90598 15.3945 3.01314 15.4389 3.12488 15.4389H5.65268C5.76441 15.4389 5.87157 15.3945 5.95058 15.3155C6.02959 15.2365 6.07398 15.1293 6.07398 15.0176V9.37215H8.28159C8.37528 9.37349 8.46674 9.34357 8.54151 9.2871C8.61629 9.23064 8.67011 9.15086 8.69446 9.06038L9.30113 6.86963C9.31789 6.80738 9.32015 6.74211 9.30772 6.67885C9.29529 6.61559 9.26851 6.55603 9.22944 6.50476C9.19037 6.45348 9.14005 6.41185 9.08236 6.38307C9.02467 6.3543 8.96115 6.33915 8.89668 6.33879H6.07398V4.06377C6.09494 3.85521 6.19288 3.66194 6.34868 3.52172C6.50449 3.3815 6.70696 3.30438 6.91658 3.30543H9.02307C9.13481 3.30543 9.24197 3.26104 9.32098 3.18203C9.39999 3.10302 9.44437 2.99587 9.44437 2.88413V0.693372Z" fill="white"/>
</svg>
