<svg width="248" height="120" viewBox="0 0 248 120" fill="none" xmlns="http://www.w3.org/2000/svg">
<path opacity="0.9" d="M0 15C0 6.71573 6.71573 0 15 0H232.5C240.784 0 247.5 6.71573 247.5 15V105C247.5 113.284 240.784 120 232.5 120H15C6.71573 120 0 113.284 0 105V15Z" fill="white"/>
<rect x="33.5" y="25.2275" width="68.1818" height="69.5455" rx="15" fill="#FD5444"/>
<path d="M124.724 34.5607C124.788 32.8487 125.348 31.5287 126.404 30.6007C127.46 29.6727 128.892 29.2087 130.7 29.2087C131.9 29.2087 132.924 29.4167 133.772 29.8327C134.636 30.2487 135.284 30.8167 135.716 31.5367C136.164 32.2567 136.388 33.0647 136.388 33.9607C136.388 35.0167 136.124 35.8807 135.596 36.5527C135.068 37.2087 134.452 37.6567 133.748 37.8967V37.9927C134.66 38.2967 135.38 38.8007 135.908 39.5047C136.436 40.2087 136.7 41.1127 136.7 42.2167C136.7 43.2087 136.468 44.0887 136.004 44.8567C135.556 45.6087 134.892 46.2007 134.012 46.6327C133.148 47.0647 132.116 47.2807 130.916 47.2807C128.996 47.2807 127.46 46.8087 126.308 45.8647C125.172 44.9207 124.572 43.4967 124.508 41.5927H128.492C128.508 42.2967 128.708 42.8567 129.092 43.2727C129.476 43.6727 130.036 43.8727 130.772 43.8727C131.396 43.8727 131.876 43.6967 132.212 43.3447C132.564 42.9767 132.74 42.4967 132.74 41.9047C132.74 41.1367 132.492 40.5847 131.996 40.2487C131.516 39.8967 130.74 39.7207 129.668 39.7207H128.9V36.3847H129.668C130.484 36.3847 131.14 36.2487 131.636 35.9767C132.148 35.6887 132.404 35.1847 132.404 34.4647C132.404 33.8887 132.244 33.4407 131.924 33.1207C131.604 32.8007 131.164 32.6407 130.604 32.6407C129.996 32.6407 129.54 32.8247 129.236 33.1927C128.948 33.5607 128.78 34.0167 128.732 34.5607H124.724ZM151.447 33.1927H143.959V36.5047C144.279 36.1527 144.727 35.8647 145.303 35.6407C145.879 35.4167 146.503 35.3047 147.175 35.3047C148.375 35.3047 149.367 35.5767 150.151 36.1207C150.951 36.6647 151.535 37.3687 151.903 38.2327C152.271 39.0967 152.455 40.0327 152.455 41.0407C152.455 42.9127 151.927 44.4007 150.871 45.5047C149.815 46.5927 148.327 47.1367 146.407 47.1367C145.127 47.1367 144.015 46.9207 143.071 46.4887C142.127 46.0407 141.399 45.4247 140.887 44.6407C140.375 43.8567 140.095 42.9527 140.047 41.9287H144.055C144.151 42.4247 144.383 42.8407 144.751 43.1767C145.119 43.4967 145.623 43.6567 146.263 43.6567C147.015 43.6567 147.575 43.4167 147.943 42.9367C148.311 42.4567 148.495 41.8167 148.495 41.0167C148.495 40.2327 148.303 39.6327 147.919 39.2167C147.535 38.8007 146.975 38.5927 146.239 38.5927C145.695 38.5927 145.247 38.7287 144.895 39.0007C144.543 39.2567 144.311 39.6007 144.199 40.0327H140.239V29.5927H151.447V33.1927ZM164.897 47.1367L159.233 39.6967V47.1367H155.129V30.2887H159.233V37.6807L164.849 30.2887H169.673L163.145 38.5447L169.913 47.1367H164.897ZM184.031 40.5847H179.855V44.8567H175.967V40.5847H171.791V36.9127H175.967V32.6167H179.855V36.9127H184.031V40.5847Z" fill="#363352"/>
<path d="M123.92 66.7541C123.92 65.9301 124.104 65.1941 124.472 64.5461C124.848 63.8901 125.356 63.3821 125.996 63.0221C126.644 62.6541 127.368 62.4701 128.168 62.4701C129.104 62.4701 129.924 62.7101 130.628 63.1901C131.332 63.6701 131.824 64.3341 132.104 65.1821H130.172C129.98 64.7821 129.708 64.4821 129.356 64.2821C129.012 64.0821 128.612 63.9821 128.156 63.9821C127.668 63.9821 127.232 64.0981 126.848 64.3301C126.472 64.5541 126.176 64.8741 125.96 65.2901C125.752 65.7061 125.648 66.1941 125.648 66.7541C125.648 67.3061 125.752 67.7941 125.96 68.2181C126.176 68.6341 126.472 68.9581 126.848 69.1901C127.232 69.4141 127.668 69.5261 128.156 69.5261C128.612 69.5261 129.012 69.4261 129.356 69.2261C129.708 69.0181 129.98 68.7141 130.172 68.3141H132.104C131.824 69.1701 131.332 69.8381 130.628 70.3181C129.932 70.7901 129.112 71.0261 128.168 71.0261C127.368 71.0261 126.644 70.8461 125.996 70.4861C125.356 70.1181 124.848 69.6101 124.472 68.9621C124.104 68.3141 123.92 67.5781 123.92 66.7541ZM133.107 67.6061C133.107 66.9341 133.239 66.3381 133.503 65.8181C133.775 65.2981 134.139 64.8981 134.595 64.6181C135.059 64.3381 135.575 64.1981 136.143 64.1981C136.639 64.1981 137.071 64.2981 137.439 64.4981C137.815 64.6981 138.115 64.9501 138.339 65.2541V64.3061H140.031V70.9541H138.339V69.9821C138.123 70.2941 137.823 70.5541 137.439 70.7621C137.063 70.9621 136.627 71.0621 136.131 71.0621C135.571 71.0621 135.059 70.9181 134.595 70.6301C134.139 70.3421 133.775 69.9381 133.503 69.4181C133.239 68.8901 133.107 68.2861 133.107 67.6061ZM138.339 67.6301C138.339 67.2221 138.259 66.8741 138.099 66.5861C137.939 66.2901 137.723 66.0661 137.451 65.9141C137.179 65.7541 136.887 65.6741 136.575 65.6741C136.263 65.6741 135.975 65.7501 135.711 65.9021C135.447 66.0541 135.231 66.2781 135.063 66.5741C134.903 66.8621 134.823 67.2061 134.823 67.6061C134.823 68.0061 134.903 68.3581 135.063 68.6621C135.231 68.9581 135.447 69.1861 135.711 69.3461C135.983 69.5061 136.271 69.5861 136.575 69.5861C136.887 69.5861 137.179 69.5101 137.451 69.3581C137.723 69.1981 137.939 68.9741 138.099 68.6861C138.259 68.3901 138.339 68.0381 138.339 67.6301ZM144.216 71.0621C143.672 71.0621 143.184 70.9661 142.752 70.7741C142.32 70.5741 141.976 70.3061 141.72 69.9701C141.472 69.6341 141.336 69.2621 141.312 68.8541H143.004C143.036 69.1101 143.16 69.3221 143.376 69.4901C143.6 69.6581 143.876 69.7421 144.204 69.7421C144.524 69.7421 144.772 69.6781 144.948 69.5501C145.132 69.4221 145.224 69.2581 145.224 69.0581C145.224 68.8421 145.112 68.6821 144.888 68.5781C144.672 68.4661 144.324 68.3461 143.844 68.2181C143.348 68.0981 142.94 67.9741 142.62 67.8461C142.308 67.7181 142.036 67.5221 141.804 67.2581C141.58 66.9941 141.468 66.6381 141.468 66.1901C141.468 65.8221 141.572 65.4861 141.78 65.1821C141.996 64.8781 142.3 64.6381 142.692 64.4621C143.092 64.2861 143.56 64.1981 144.096 64.1981C144.888 64.1981 145.52 64.3981 145.992 64.7981C146.464 65.1901 146.724 65.7221 146.772 66.3941H145.164C145.14 66.1301 145.028 65.9221 144.828 65.7701C144.636 65.6101 144.376 65.5301 144.048 65.5301C143.744 65.5301 143.508 65.5861 143.34 65.6981C143.18 65.8101 143.1 65.9661 143.1 66.1661C143.1 66.3901 143.212 66.5621 143.436 66.6821C143.66 66.7941 144.008 66.9101 144.48 67.0301C144.96 67.1501 145.356 67.2741 145.668 67.4021C145.98 67.5301 146.248 67.7301 146.472 68.0021C146.704 68.2661 146.824 68.6181 146.832 69.0581C146.832 69.4421 146.724 69.7861 146.508 70.0901C146.3 70.3941 145.996 70.6341 145.596 70.8101C145.204 70.9781 144.744 71.0621 144.216 71.0621ZM154.391 67.4861C154.391 67.7261 154.375 67.9421 154.343 68.1341H149.483C149.523 68.6141 149.691 68.9901 149.987 69.2621C150.283 69.5341 150.647 69.6701 151.079 69.6701C151.703 69.6701 152.147 69.4021 152.411 68.8661H154.223C154.031 69.5061 153.663 70.0341 153.119 70.4501C152.575 70.8581 151.907 71.0621 151.115 71.0621C150.475 71.0621 149.899 70.9221 149.387 70.6421C148.883 70.3541 148.487 69.9501 148.199 69.4301C147.919 68.9101 147.779 68.3101 147.779 67.6301C147.779 66.9421 147.919 66.3381 148.199 65.8181C148.479 65.2981 148.871 64.8981 149.375 64.6181C149.879 64.3381 150.459 64.1981 151.115 64.1981C151.747 64.1981 152.311 64.3341 152.807 64.6061C153.311 64.8781 153.699 65.2661 153.971 65.7701C154.251 66.2661 154.391 66.8381 154.391 67.4861ZM152.651 67.0061C152.643 66.5741 152.487 66.2301 152.183 65.9741C151.879 65.7101 151.507 65.5781 151.067 65.5781C150.651 65.5781 150.299 65.7061 150.011 65.9621C149.731 66.2101 149.559 66.5581 149.495 67.0061H152.651ZM158.161 71.0621C157.617 71.0621 157.129 70.9661 156.697 70.7741C156.265 70.5741 155.921 70.3061 155.665 69.9701C155.417 69.6341 155.281 69.2621 155.257 68.8541H156.949C156.981 69.1101 157.105 69.3221 157.321 69.4901C157.545 69.6581 157.821 69.7421 158.149 69.7421C158.469 69.7421 158.717 69.6781 158.893 69.5501C159.077 69.4221 159.169 69.2581 159.169 69.0581C159.169 68.8421 159.057 68.6821 158.833 68.5781C158.617 68.4661 158.269 68.3461 157.789 68.2181C157.293 68.0981 156.885 67.9741 156.565 67.8461C156.253 67.7181 155.981 67.5221 155.749 67.2581C155.525 66.9941 155.413 66.6381 155.413 66.1901C155.413 65.8221 155.517 65.4861 155.725 65.1821C155.941 64.8781 156.245 64.6381 156.637 64.4621C157.037 64.2861 157.505 64.1981 158.041 64.1981C158.833 64.1981 159.465 64.3981 159.937 64.7981C160.409 65.1901 160.669 65.7221 160.717 66.3941H159.109C159.085 66.1301 158.973 65.9221 158.773 65.7701C158.581 65.6101 158.321 65.5301 157.993 65.5301C157.689 65.5301 157.453 65.5861 157.285 65.6981C157.125 65.8101 157.045 65.9661 157.045 66.1661C157.045 66.3901 157.157 66.5621 157.381 66.6821C157.605 66.7941 157.953 66.9101 158.425 67.0301C158.905 67.1501 159.301 67.2741 159.613 67.4021C159.925 67.5301 160.193 67.7301 160.417 68.0021C160.649 68.2661 160.769 68.6181 160.777 69.0581C160.777 69.4421 160.669 69.7861 160.453 70.0901C160.245 70.3941 159.941 70.6341 159.541 70.8101C159.149 70.9781 158.689 71.0621 158.161 71.0621ZM167.908 71.0381C167.324 71.0381 166.796 70.9381 166.324 70.7381C165.86 70.5381 165.492 70.2501 165.22 69.8741C164.948 69.4981 164.808 69.0541 164.8 68.5421H166.6C166.624 68.8861 166.744 69.1581 166.96 69.3581C167.184 69.5581 167.488 69.6581 167.872 69.6581C168.264 69.6581 168.572 69.5661 168.796 69.3821C169.02 69.1901 169.132 68.9421 169.132 68.6381C169.132 68.3901 169.056 68.1861 168.904 68.0261C168.752 67.8661 168.56 67.7421 168.328 67.6541C168.104 67.5581 167.792 67.4541 167.392 67.3421C166.848 67.1821 166.404 67.0261 166.06 66.8741C165.724 66.7141 165.432 66.4781 165.184 66.1661C164.944 65.8461 164.824 65.4221 164.824 64.8941C164.824 64.3981 164.948 63.9661 165.196 63.5981C165.444 63.2301 165.792 62.9501 166.24 62.7581C166.688 62.5581 167.2 62.4581 167.776 62.4581C168.64 62.4581 169.34 62.6701 169.876 63.0941C170.42 63.5101 170.72 64.0941 170.776 64.8461H168.928C168.912 64.5581 168.788 64.3221 168.556 64.1381C168.332 63.9461 168.032 63.8501 167.656 63.8501C167.328 63.8501 167.064 63.9341 166.864 64.1021C166.672 64.2701 166.576 64.5141 166.576 64.8341C166.576 65.0581 166.648 65.2461 166.792 65.3981C166.944 65.5421 167.128 65.6621 167.344 65.7581C167.568 65.8461 167.88 65.9501 168.28 66.0701C168.824 66.2301 169.268 66.3901 169.612 66.5501C169.956 66.7101 170.252 66.9501 170.5 67.2701C170.748 67.5901 170.872 68.0101 170.872 68.5301C170.872 68.9781 170.756 69.3941 170.523 69.7781C170.292 70.1621 169.952 70.4701 169.504 70.7021C169.056 70.9261 168.524 71.0381 167.908 71.0381ZM175.28 71.0621C174.64 71.0621 174.064 70.9221 173.552 70.6421C173.04 70.3541 172.636 69.9501 172.34 69.4301C172.052 68.9101 171.908 68.3101 171.908 67.6301C171.908 66.9501 172.056 66.3501 172.352 65.8301C172.656 65.3101 173.068 64.9101 173.588 64.6301C174.108 64.3421 174.688 64.1981 175.328 64.1981C175.968 64.1981 176.548 64.3421 177.068 64.6301C177.588 64.9101 177.996 65.3101 178.292 65.8301C178.596 66.3501 178.748 66.9501 178.748 67.6301C178.748 68.3101 178.592 68.9101 178.28 69.4301C177.976 69.9501 177.56 70.3541 177.032 70.6421C176.512 70.9221 175.928 71.0621 175.28 71.0621ZM175.28 69.5981C175.584 69.5981 175.868 69.5261 176.132 69.3821C176.404 69.2301 176.62 69.0061 176.78 68.7101C176.94 68.4141 177.02 68.0541 177.02 67.6301C177.02 66.9981 176.852 66.5141 176.516 66.1781C176.188 65.8341 175.784 65.6621 175.304 65.6621C174.824 65.6621 174.42 65.8341 174.092 66.1781C173.772 66.5141 173.612 66.9981 173.612 67.6301C173.612 68.2621 173.768 68.7501 174.08 69.0941C174.4 69.4301 174.8 69.5981 175.28 69.5981ZM181.66 62.0741V70.9541H179.98V62.0741H181.66ZM186.092 69.4061L187.772 64.3061H189.56L187.1 70.9541H185.06L182.612 64.3061H184.412L186.092 69.4061ZM196.684 67.4861C196.684 67.7261 196.668 67.9421 196.636 68.1341H191.776C191.816 68.6141 191.984 68.9901 192.28 69.2621C192.576 69.5341 192.94 69.6701 193.372 69.6701C193.996 69.6701 194.44 69.4021 194.704 68.8661H196.516C196.324 69.5061 195.956 70.0341 195.412 70.4501C194.868 70.8581 194.2 71.0621 193.408 71.0621C192.768 71.0621 192.192 70.9221 191.68 70.6421C191.176 70.3541 190.78 69.9501 190.492 69.4301C190.212 68.9101 190.072 68.3101 190.072 67.6301C190.072 66.9421 190.212 66.3381 190.492 65.8181C190.772 65.2981 191.164 64.8981 191.668 64.6181C192.172 64.3381 192.752 64.1981 193.408 64.1981C194.04 64.1981 194.604 64.3341 195.1 64.6061C195.604 64.8781 195.992 65.2661 196.264 65.7701C196.544 66.2661 196.684 66.8381 196.684 67.4861ZM194.944 67.0061C194.936 66.5741 194.78 66.2301 194.476 65.9741C194.172 65.7101 193.8 65.5781 193.36 65.5781C192.944 65.5781 192.592 65.7061 192.304 65.9621C192.024 66.2101 191.852 66.5581 191.788 67.0061H194.944ZM197.478 67.6061C197.478 66.9341 197.61 66.3381 197.874 65.8181C198.146 65.2981 198.514 64.8981 198.978 64.6181C199.442 64.3381 199.958 64.1981 200.526 64.1981C200.958 64.1981 201.37 64.2941 201.762 64.4861C202.154 64.6701 202.466 64.9181 202.698 65.2301V62.0741H204.402V70.9541H202.698V69.9701C202.49 70.2981 202.198 70.5621 201.822 70.7621C201.446 70.9621 201.01 71.0621 200.514 71.0621C199.954 71.0621 199.442 70.9181 198.978 70.6301C198.514 70.3421 198.146 69.9381 197.874 69.4181C197.61 68.8901 197.478 68.2861 197.478 67.6061ZM202.71 67.6301C202.71 67.2221 202.63 66.8741 202.47 66.5861C202.31 66.2901 202.094 66.0661 201.822 65.9141C201.55 65.7541 201.258 65.6741 200.946 65.6741C200.634 65.6741 200.346 65.7501 200.082 65.9021C199.818 66.0541 199.602 66.2781 199.434 66.5741C199.274 66.8621 199.194 67.2061 199.194 67.6061C199.194 68.0061 199.274 68.3581 199.434 68.6621C199.602 68.9581 199.818 69.1861 200.082 69.3461C200.354 69.5061 200.642 69.5861 200.946 69.5861C201.258 69.5861 201.55 69.5101 201.822 69.3581C202.094 69.1981 202.31 68.9741 202.47 68.6861C202.63 68.3901 202.71 68.0381 202.71 67.6301ZM133.544 82.3061L131.6 88.9541H129.788L128.576 84.3101L127.364 88.9541H125.54L123.584 82.3061H125.288L126.464 87.3701L127.736 82.3061H129.512L130.76 87.3581L131.936 82.3061H133.544ZM135.305 81.5141C135.009 81.5141 134.761 81.4221 134.561 81.2381C134.369 81.0461 134.273 80.8101 134.273 80.5301C134.273 80.2501 134.369 80.0181 134.561 79.8341C134.761 79.6421 135.009 79.5461 135.305 79.5461C135.601 79.5461 135.845 79.6421 136.037 79.8341C136.237 80.0181 136.337 80.2501 136.337 80.5301C136.337 80.8101 136.237 81.0461 136.037 81.2381C135.845 81.4221 135.601 81.5141 135.305 81.5141ZM136.133 82.3061V88.9541H134.453V82.3061H136.133ZM139.749 83.6861V86.9021C139.749 87.1261 139.801 87.2901 139.905 87.3941C140.017 87.4901 140.201 87.5381 140.457 87.5381H141.237V88.9541H140.181C138.765 88.9541 138.057 88.2661 138.057 86.8901V83.6861H137.265V82.3061H138.057V80.6621H139.749V82.3061H141.237V83.6861H139.749ZM146.189 82.2101C146.693 82.2101 147.141 82.3221 147.533 82.5461C147.925 82.7621 148.229 83.0861 148.445 83.5181C148.669 83.9421 148.781 84.4541 148.781 85.0541V88.9541H147.101V85.2821C147.101 84.7541 146.969 84.3501 146.705 84.0701C146.441 83.7821 146.081 83.6381 145.625 83.6381C145.161 83.6381 144.793 83.7821 144.521 84.0701C144.257 84.3501 144.125 84.7541 144.125 85.2821V88.9541H142.445V80.0741H144.125V83.1341C144.341 82.8461 144.629 82.6221 144.989 82.4621C145.349 82.2941 145.749 82.2101 146.189 82.2101ZM156.13 89.0381C155.546 89.0381 155.018 88.9381 154.546 88.7381C154.082 88.5381 153.714 88.2501 153.442 87.8741C153.17 87.4981 153.03 87.0541 153.022 86.5421H154.822C154.846 86.8861 154.966 87.1581 155.182 87.3581C155.406 87.5581 155.71 87.6581 156.094 87.6581C156.486 87.6581 156.794 87.5661 157.018 87.3821C157.242 87.1901 157.354 86.9421 157.354 86.6381C157.354 86.3901 157.278 86.1861 157.126 86.0261C156.974 85.8661 156.782 85.7421 156.55 85.6541C156.326 85.5581 156.014 85.4541 155.614 85.3421C155.07 85.1821 154.626 85.0261 154.282 84.8741C153.946 84.7141 153.654 84.4781 153.406 84.1661C153.166 83.8461 153.046 83.4221 153.046 82.8941C153.046 82.3981 153.17 81.9661 153.418 81.5981C153.666 81.2301 154.014 80.9501 154.462 80.7581C154.91 80.5581 155.422 80.4581 155.998 80.4581C156.862 80.4581 157.562 80.6701 158.098 81.0941C158.642 81.5101 158.942 82.0941 158.998 82.8461H157.15C157.134 82.5581 157.01 82.3221 156.778 82.1381C156.554 81.9461 156.254 81.8501 155.878 81.8501C155.55 81.8501 155.286 81.9341 155.086 82.1021C154.894 82.2701 154.798 82.5141 154.798 82.8341C154.798 83.0581 154.87 83.2461 155.014 83.3981C155.166 83.5421 155.35 83.6621 155.566 83.7581C155.79 83.8461 156.102 83.9501 156.502 84.0701C157.046 84.2301 157.49 84.3901 157.834 84.5501C158.178 84.7101 158.474 84.9501 158.722 85.2701C158.97 85.5901 159.094 86.0101 159.094 86.5301C159.094 86.9781 158.978 87.3941 158.746 87.7781C158.514 88.1621 158.174 88.4701 157.726 88.7021C157.278 88.9261 156.746 89.0381 156.13 89.0381ZM160.119 85.6061C160.119 84.9341 160.251 84.3381 160.515 83.8181C160.787 83.2981 161.151 82.8981 161.607 82.6181C162.071 82.3381 162.587 82.1981 163.155 82.1981C163.651 82.1981 164.083 82.2981 164.451 82.4981C164.827 82.6981 165.127 82.9501 165.351 83.2541V82.3061H167.043V88.9541H165.351V87.9821C165.135 88.2941 164.835 88.5541 164.451 88.7621C164.075 88.9621 163.639 89.0621 163.143 89.0621C162.583 89.0621 162.071 88.9181 161.607 88.6301C161.151 88.3421 160.787 87.9381 160.515 87.4181C160.251 86.8901 160.119 86.2861 160.119 85.6061ZM165.351 85.6301C165.351 85.2221 165.271 84.8741 165.111 84.5861C164.951 84.2901 164.735 84.0661 164.463 83.9141C164.191 83.7541 163.899 83.6741 163.587 83.6741C163.275 83.6741 162.987 83.7501 162.723 83.9021C162.459 84.0541 162.243 84.2781 162.075 84.5741C161.915 84.8621 161.835 85.2061 161.835 85.6061C161.835 86.0061 161.915 86.3581 162.075 86.6621C162.243 86.9581 162.459 87.1861 162.723 87.3461C162.995 87.5061 163.283 87.5861 163.587 87.5861C163.899 87.5861 164.191 87.5101 164.463 87.3581C164.735 87.1981 164.951 86.9741 165.111 86.6861C165.271 86.3901 165.351 86.0381 165.351 85.6301ZM170.639 83.6861V86.9021C170.639 87.1261 170.691 87.2901 170.795 87.3941C170.907 87.4901 171.091 87.5381 171.347 87.5381H172.127V88.9541H171.071C169.655 88.9541 168.947 88.2661 168.947 86.8901V83.6861H168.155V82.3061H168.947V80.6621H170.639V82.3061H172.127V83.6861H170.639ZM174.188 81.5141C173.892 81.5141 173.644 81.4221 173.444 81.2381C173.252 81.0461 173.156 80.8101 173.156 80.5301C173.156 80.2501 173.252 80.0181 173.444 79.8341C173.644 79.6421 173.892 79.5461 174.188 79.5461C174.484 79.5461 174.728 79.6421 174.92 79.8341C175.12 80.0181 175.22 80.2501 175.22 80.5301C175.22 80.8101 175.12 81.0461 174.92 81.2381C174.728 81.4221 174.484 81.5141 174.188 81.5141ZM175.016 82.3061V88.9541H173.336V82.3061H175.016ZM179.22 89.0621C178.676 89.0621 178.188 88.9661 177.756 88.7741C177.324 88.5741 176.98 88.3061 176.724 87.9701C176.476 87.6341 176.34 87.2621 176.316 86.8541H178.008C178.04 87.1101 178.164 87.3221 178.38 87.4901C178.604 87.6581 178.88 87.7421 179.208 87.7421C179.528 87.7421 179.776 87.6781 179.952 87.5501C180.136 87.4221 180.228 87.2581 180.228 87.0581C180.228 86.8421 180.116 86.6821 179.892 86.5781C179.676 86.4661 179.328 86.3461 178.848 86.2181C178.352 86.0981 177.944 85.9741 177.624 85.8461C177.312 85.7181 177.04 85.5221 176.808 85.2581C176.584 84.9941 176.472 84.6381 176.472 84.1901C176.472 83.8221 176.576 83.4861 176.784 83.1821C177 82.8781 177.304 82.6381 177.696 82.4621C178.096 82.2861 178.564 82.1981 179.1 82.1981C179.892 82.1981 180.524 82.3981 180.996 82.7981C181.468 83.1901 181.728 83.7221 181.776 84.3941H180.168C180.144 84.1301 180.032 83.9221 179.832 83.7701C179.64 83.6101 179.38 83.5301 179.052 83.5301C178.748 83.5301 178.512 83.5861 178.344 83.6981C178.184 83.8101 178.104 83.9661 178.104 84.1661C178.104 84.3901 178.216 84.5621 178.44 84.6821C178.664 84.7941 179.012 84.9101 179.484 85.0301C179.964 85.1501 180.36 85.2741 180.672 85.4021C180.984 85.5301 181.252 85.7301 181.476 86.0021C181.708 86.2661 181.828 86.6181 181.836 87.0581C181.836 87.4421 181.728 87.7861 181.512 88.0901C181.304 88.3941 181 88.6341 180.6 88.8101C180.208 88.9781 179.748 89.0621 179.22 89.0621ZM186.263 83.6861H185.099V88.9541H183.395V83.6861H182.639V82.3061H183.395V81.9701C183.395 81.1541 183.627 80.5541 184.091 80.1701C184.555 79.7861 185.255 79.6061 186.191 79.6301V81.0461C185.783 81.0381 185.499 81.1061 185.339 81.2501C185.179 81.3941 185.099 81.6541 185.099 82.0301V82.3061H186.263V83.6861ZM186.919 85.6061C186.919 84.9341 187.051 84.3381 187.315 83.8181C187.587 83.2981 187.951 82.8981 188.407 82.6181C188.871 82.3381 189.387 82.1981 189.955 82.1981C190.451 82.1981 190.883 82.2981 191.251 82.4981C191.627 82.6981 191.927 82.9501 192.151 83.2541V82.3061H193.843V88.9541H192.151V87.9821C191.935 88.2941 191.635 88.5541 191.251 88.7621C190.875 88.9621 190.439 89.0621 189.943 89.0621C189.383 89.0621 188.871 88.9181 188.407 88.6301C187.951 88.3421 187.587 87.9381 187.315 87.4181C187.051 86.8901 186.919 86.2861 186.919 85.6061ZM192.151 85.6301C192.151 85.2221 192.071 84.8741 191.911 84.5861C191.751 84.2901 191.535 84.0661 191.263 83.9141C190.991 83.7541 190.699 83.6741 190.387 83.6741C190.075 83.6741 189.787 83.7501 189.523 83.9021C189.259 84.0541 189.043 84.2781 188.875 84.5741C188.715 84.8621 188.635 85.2061 188.635 85.6061C188.635 86.0061 188.715 86.3581 188.875 86.6621C189.043 86.9581 189.259 87.1861 189.523 87.3461C189.795 87.5061 190.083 87.5861 190.387 87.5861C190.699 87.5861 190.991 87.5101 191.263 87.3581C191.535 87.1981 191.751 86.9741 191.911 86.6861C192.071 86.3901 192.151 86.0381 192.151 85.6301ZM195.052 85.6301C195.052 84.9421 195.192 84.3421 195.472 83.8301C195.752 83.3101 196.14 82.9101 196.636 82.6301C197.132 82.3421 197.7 82.1981 198.34 82.1981C199.164 82.1981 199.844 82.4061 200.38 82.8221C200.924 83.2301 201.288 83.8061 201.472 84.5501H199.66C199.564 84.2621 199.4 84.0381 199.168 83.8781C198.944 83.7101 198.664 83.6261 198.328 83.6261C197.848 83.6261 197.468 83.8021 197.188 84.1541C196.908 84.4981 196.768 84.9901 196.768 85.6301C196.768 86.2621 196.908 86.7541 197.188 87.1061C197.468 87.4501 197.848 87.6221 198.328 87.6221C199.008 87.6221 199.452 87.3181 199.66 86.7101H201.472C201.288 87.4301 200.924 88.0021 200.38 88.4261C199.836 88.8501 199.156 89.0621 198.34 89.0621C197.7 89.0621 197.132 88.9221 196.636 88.6421C196.14 88.3541 195.752 87.9541 195.472 87.4421C195.192 86.9221 195.052 86.3181 195.052 85.6301ZM204.659 83.6861V86.9021C204.659 87.1261 204.711 87.2901 204.815 87.3941C204.927 87.4901 205.111 87.5381 205.367 87.5381H206.147V88.9541H205.091C203.675 88.9541 202.967 88.2661 202.967 86.8901V83.6861H202.175V82.3061H202.967V80.6621H204.659V82.3061H206.147V83.6861H204.659ZM208.207 81.5141C207.911 81.5141 207.663 81.4221 207.463 81.2381C207.271 81.0461 207.175 80.8101 207.175 80.5301C207.175 80.2501 207.271 80.0181 207.463 79.8341C207.663 79.6421 207.911 79.5461 208.207 79.5461C208.503 79.5461 208.747 79.6421 208.939 79.8341C209.139 80.0181 209.239 80.2501 209.239 80.5301C209.239 80.8101 209.139 81.0461 208.939 81.2381C208.747 81.4221 208.503 81.5141 208.207 81.5141ZM209.035 82.3061V88.9541H207.355V82.3061H209.035ZM213.647 89.0621C213.007 89.0621 212.431 88.9221 211.919 88.6421C211.407 88.3541 211.003 87.9501 210.707 87.4301C210.419 86.9101 210.275 86.3101 210.275 85.6301C210.275 84.9501 210.423 84.3501 210.719 83.8301C211.023 83.3101 211.435 82.9101 211.955 82.6301C212.475 82.3421 213.055 82.1981 213.695 82.1981C214.335 82.1981 214.915 82.3421 215.435 82.6301C215.955 82.9101 216.363 83.3101 216.659 83.8301C216.963 84.3501 217.115 84.9501 217.115 85.6301C217.115 86.3101 216.959 86.9101 216.647 87.4301C216.343 87.9501 215.927 88.3541 215.399 88.6421C214.879 88.9221 214.295 89.0621 213.647 89.0621ZM213.647 87.5981C213.951 87.5981 214.235 87.5261 214.499 87.3821C214.771 87.2301 214.987 87.0061 215.147 86.7101C215.307 86.4141 215.387 86.0541 215.387 85.6301C215.387 84.9981 215.219 84.5141 214.883 84.1781C214.555 83.8341 214.151 83.6621 213.671 83.6621C213.191 83.6621 212.787 83.8341 212.459 84.1781C212.139 84.5141 211.979 84.9981 211.979 85.6301C211.979 86.2621 212.135 86.7501 212.447 87.0941C212.767 87.4301 213.167 87.5981 213.647 87.5981ZM222.032 82.2101C222.824 82.2101 223.464 82.4621 223.952 82.9661C224.44 83.4621 224.684 84.1581 224.684 85.0541V88.9541H223.004V85.2821C223.004 84.7541 222.872 84.3501 222.608 84.0701C222.344 83.7821 221.984 83.6381 221.528 83.6381C221.064 83.6381 220.696 83.7821 220.424 84.0701C220.16 84.3501 220.028 84.7541 220.028 85.2821V88.9541H218.348V82.3061H220.028V83.1341C220.252 82.8461 220.536 82.6221 220.88 82.4621C221.232 82.2941 221.616 82.2101 222.032 82.2101Z" fill="#363352"/>
<path d="M83.1336 49.6084C83.1293 49.3713 83.1255 49.1665 83.1255 48.9939H76.3852C76.5153 46.0962 76.4279 43.6367 76.4279 43.6367H64.5401C64.5122 43.6368 64.4844 43.6384 64.4567 43.6414C64.429 43.6384 64.4012 43.6368 64.3733 43.6367H52.4552C52.4552 43.6367 52.3678 46.0962 52.4979 48.9939H45.7891V51.6724H45.8025C45.8701 53.8568 46.2177 56.7784 47.6647 59.7692C48.8919 62.306 50.6592 64.4285 52.9175 66.0778C54.7872 67.4432 56.9234 68.4269 59.2718 69.0145C60.628 70.4675 61.9655 71.2686 63.1329 71.5907V74.5727C62.9661 75.4586 61.9538 78.4581 54.8974 78.4581H53.7939V81.1367H75.1401V78.4581H74.0413C65.7626 78.4581 65.8012 74.3286 65.8012 74.3286V71.5903C66.9685 71.2686 68.2802 70.4708 69.6293 69.0252C71.9948 68.439 74.138 67.4515 76.0193 66.0777C78.2775 64.4285 80.0435 62.3059 81.2708 59.7691C83.2453 55.6875 83.1722 51.733 83.1336 49.6084ZM50.0635 58.5986C48.8578 56.106 48.5422 53.5973 48.4729 51.6724H52.6827C52.7551 52.4186 52.8467 53.1541 52.9626 53.8471C53.6724 58.0917 54.648 61.8404 56.4942 65.1481C53.6727 63.7133 51.4567 61.4784 50.0635 58.5986ZM78.8705 58.5986C77.469 61.4957 75.2347 63.7399 72.3891 65.1737C74.2415 61.8597 75.2088 58.1027 75.9206 53.8472C76.0365 53.1541 76.1281 52.4186 76.2004 51.6725H80.461C80.3917 53.5973 80.0763 56.106 78.8705 58.5986Z" fill="white"/>
<circle cx="67.2493" cy="24.886" r="6.52273" fill="#FD5444" stroke="white" stroke-width="4"/>
</svg>
