<svg width="224" height="136" viewBox="0 0 224 136" fill="none" xmlns="http://www.w3.org/2000/svg">
<rect x="0.5" y="0.5" width="223" height="121" rx="11.5" fill="white" stroke="#F2F2F2"/>
<path d="M59.152 33.208C58.3733 33.208 57.648 33.0587 56.976 32.76C56.3093 32.456 55.7253 32.0373 55.224 31.504C54.728 30.9653 54.3387 30.344 54.056 29.64C53.7787 28.936 53.64 28.1867 53.64 27.392C53.64 26.5547 53.7893 25.784 54.088 25.08C54.3867 24.376 54.7947 23.7653 55.312 23.248C55.8293 22.7253 56.4187 22.32 57.08 22.032C57.7467 21.744 58.4453 21.6 59.176 21.6C60.0027 21.6 60.7973 21.792 61.56 22.176C62.3227 22.56 62.9867 23.136 63.552 23.904L62.064 24.712C61.68 24.232 61.232 23.8693 60.72 23.624C60.2133 23.3787 59.6933 23.256 59.16 23.256C58.6427 23.256 58.152 23.3627 57.688 23.576C57.224 23.784 56.8133 24.0773 56.456 24.456C56.0987 24.8293 55.816 25.2693 55.608 25.776C55.4053 26.2773 55.304 26.824 55.304 27.416C55.304 27.9867 55.4027 28.5227 55.6 29.024C55.8027 29.5253 56.08 29.9653 56.432 30.344C56.7893 30.7173 57.2 31.0107 57.664 31.224C58.1333 31.4373 58.6347 31.544 59.168 31.544C59.5627 31.544 59.9413 31.48 60.304 31.352C60.6667 31.224 61.0027 31.0427 61.312 30.808C61.6267 30.568 61.9013 30.2827 62.136 29.952C62.3707 29.6213 62.5573 29.2533 62.696 28.848H60.32V27.376H64.648C64.6587 28.176 64.52 28.928 64.232 29.632C63.9493 30.336 63.5547 30.9573 63.048 31.496C62.5467 32.0293 61.9627 32.448 61.296 32.752C60.6293 33.056 59.9147 33.208 59.152 33.208ZM66.1788 33V25H67.8428V25.848C68.1201 25.5173 68.4614 25.256 68.8668 25.064C69.2721 24.872 69.7094 24.776 70.1788 24.776C70.4774 24.776 70.7734 24.816 71.0668 24.896L70.4028 26.576C70.1948 26.496 69.9868 26.456 69.7788 26.456C69.4268 26.456 69.1041 26.544 68.8108 26.72C68.5174 26.8907 68.2828 27.1227 68.1068 27.416C67.9308 27.7093 67.8428 28.0347 67.8428 28.392V33H66.1788ZM75.1363 33.208C74.4003 33.208 73.7283 33.0187 73.1203 32.64C72.5176 32.2613 72.0349 31.7547 71.6723 31.12C71.3149 30.48 71.1363 29.7733 71.1363 29C71.1363 28.4133 71.2403 27.8667 71.4483 27.36C71.6563 26.848 71.9416 26.4 72.3043 26.016C72.6723 25.6267 73.0989 25.3227 73.5843 25.104C74.0696 24.8853 74.5869 24.776 75.1363 24.776C75.7496 24.776 76.3123 24.904 76.8243 25.16C77.3363 25.4107 77.7736 25.76 78.1363 26.208C78.4989 26.6507 78.7656 27.1627 78.9363 27.744C79.1069 28.32 79.1576 28.9333 79.0883 29.584H72.9203C72.9896 29.952 73.1229 30.2853 73.3203 30.584C73.5229 30.8773 73.7789 31.1093 74.0883 31.28C74.4029 31.4507 74.7523 31.5387 75.1363 31.544C75.5416 31.544 75.9096 31.4427 76.2403 31.24C76.5763 31.0373 76.8509 30.7573 77.0643 30.4L78.7523 30.792C78.4323 31.5013 77.9496 32.0827 77.3043 32.536C76.6589 32.984 75.9363 33.208 75.1363 33.208ZM72.8643 28.312H77.4083C77.3549 27.928 77.2189 27.5813 77.0003 27.272C76.7869 26.9573 76.5176 26.7093 76.1923 26.528C75.8723 26.3413 75.5203 26.248 75.1363 26.248C74.7576 26.248 74.4056 26.3387 74.0803 26.52C73.7603 26.7013 73.4936 26.9493 73.2803 27.264C73.0723 27.5733 72.9336 27.9227 72.8643 28.312ZM86.6215 25H88.2855V33H86.6135L86.5495 31.84C86.3148 32.2507 85.9975 32.5813 85.5975 32.832C85.1975 33.0827 84.7255 33.208 84.1815 33.208C83.5948 33.208 83.0428 33.0987 82.5255 32.88C82.0082 32.656 81.5522 32.3467 81.1575 31.952C80.7682 31.5573 80.4642 31.104 80.2455 30.592C80.0268 30.0747 79.9175 29.52 79.9175 28.928C79.9175 28.3573 80.0242 27.8213 80.2375 27.32C80.4508 26.8133 80.7468 26.3707 81.1255 25.992C81.5042 25.6133 81.9415 25.3173 82.4375 25.104C82.9388 24.8853 83.4748 24.776 84.0455 24.776C84.6268 24.776 85.1388 24.9093 85.5815 25.176C86.0295 25.4373 86.4002 25.7733 86.6935 26.184L86.6215 25ZM84.1415 31.6C84.6108 31.6 85.0215 31.4853 85.3735 31.256C85.7255 31.0213 85.9975 30.7067 86.1895 30.312C86.3868 29.9173 86.4855 29.48 86.4855 29C86.4855 28.5147 86.3868 28.0747 86.1895 27.68C85.9922 27.2853 85.7175 26.9733 85.3655 26.744C85.0188 26.5093 84.6108 26.392 84.1415 26.392C83.6775 26.392 83.2535 26.5093 82.8695 26.744C82.4855 26.9787 82.1815 27.2933 81.9575 27.688C81.7335 28.0827 81.6215 28.52 81.6215 29C81.6215 29.4853 81.7362 29.9253 81.9655 30.32C82.2002 30.7093 82.5068 31.0213 82.8855 31.256C83.2695 31.4853 83.6882 31.6 84.1415 31.6ZM94.1059 26.664H92.4259L92.4179 33H90.7539L90.7619 26.664H89.4899V25H90.7619L90.7539 22.488H92.4179L92.4259 25H94.1059V26.664ZM99.3819 33V21.8H103.238C103.841 21.8 104.385 21.9493 104.87 22.248C105.361 22.5467 105.75 22.9493 106.038 23.456C106.331 23.9627 106.478 24.5227 106.478 25.136C106.478 25.76 106.329 26.3253 106.03 26.832C105.737 27.3333 105.345 27.7333 104.854 28.032C104.363 28.3307 103.825 28.48 103.238 28.48H101.046V33H99.3819ZM101.046 26.816H103.07C103.39 26.816 103.681 26.736 103.942 26.576C104.209 26.416 104.419 26.2027 104.574 25.936C104.734 25.6693 104.814 25.368 104.814 25.032C104.814 24.696 104.734 24.3947 104.574 24.128C104.419 23.856 104.209 23.6427 103.942 23.488C103.681 23.328 103.39 23.248 103.07 23.248H101.046V26.816ZM107.788 33V25H109.452V25.848C109.729 25.5173 110.071 25.256 110.476 25.064C110.881 24.872 111.319 24.776 111.788 24.776C112.087 24.776 112.383 24.816 112.676 24.896L112.012 26.576C111.804 26.496 111.596 26.456 111.388 26.456C111.036 26.456 110.713 26.544 110.42 26.72C110.127 26.8907 109.892 27.1227 109.716 27.416C109.54 27.7093 109.452 28.0347 109.452 28.392V33H107.788ZM116.746 33.208C116.01 33.208 115.338 33.0187 114.73 32.64C114.127 32.2613 113.644 31.7547 113.282 31.12C112.924 30.48 112.746 29.7733 112.746 29C112.746 28.4133 112.85 27.8667 113.058 27.36C113.266 26.848 113.551 26.4 113.914 26.016C114.282 25.6267 114.708 25.3227 115.194 25.104C115.679 24.8853 116.196 24.776 116.746 24.776C117.482 24.776 118.151 24.9653 118.754 25.344C119.362 25.7227 119.844 26.232 120.202 26.872C120.564 27.512 120.746 28.2213 120.746 29C120.746 29.5813 120.642 30.1253 120.434 30.632C120.226 31.1387 119.938 31.5867 119.57 31.976C119.207 32.36 118.783 32.6613 118.298 32.88C117.818 33.0987 117.3 33.208 116.746 33.208ZM116.746 31.544C117.188 31.544 117.586 31.4267 117.938 31.192C118.29 30.9573 118.567 30.648 118.77 30.264C118.978 29.8747 119.082 29.4533 119.082 29C119.082 28.536 118.975 28.1093 118.762 27.72C118.554 27.3307 118.274 27.0213 117.922 26.792C117.57 26.5573 117.178 26.44 116.746 26.44C116.308 26.44 115.911 26.5573 115.554 26.792C115.202 27.0267 114.922 27.3387 114.714 27.728C114.511 28.1173 114.41 28.5413 114.41 29C114.41 29.4747 114.516 29.904 114.73 30.288C114.943 30.672 115.226 30.9787 115.578 31.208C115.935 31.432 116.324 31.544 116.746 31.544ZM120.485 37V35.336C120.821 35.336 121.122 35.2587 121.389 35.104C121.661 34.9547 121.874 34.7467 122.029 34.48C122.189 34.2133 122.269 33.9173 122.269 33.592V25H123.933V33.592C123.933 34.216 123.781 34.7867 123.477 35.304C123.173 35.8213 122.76 36.232 122.237 36.536C121.72 36.8453 121.136 37 120.485 37ZM123.117 23.84C122.861 23.84 122.648 23.7573 122.477 23.592C122.306 23.4267 122.221 23.2187 122.221 22.968C122.221 22.7227 122.306 22.5173 122.477 22.352C122.648 22.1813 122.858 22.096 123.109 22.096C123.354 22.096 123.562 22.1813 123.733 22.352C123.904 22.5173 123.989 22.7227 123.989 22.968C123.989 23.2187 123.904 23.4267 123.733 23.592C123.568 23.7573 123.362 23.84 123.117 23.84ZM129.23 33.208C128.494 33.208 127.822 33.0187 127.214 32.64C126.611 32.2613 126.129 31.7547 125.766 31.12C125.409 30.48 125.23 29.7733 125.23 29C125.23 28.4133 125.334 27.8667 125.542 27.36C125.75 26.848 126.035 26.4 126.398 26.016C126.766 25.6267 127.193 25.3227 127.678 25.104C128.163 24.8853 128.681 24.776 129.23 24.776C129.843 24.776 130.406 24.904 130.918 25.16C131.43 25.4107 131.867 25.76 132.23 26.208C132.593 26.6507 132.859 27.1627 133.03 27.744C133.201 28.32 133.251 28.9333 133.182 29.584H127.014C127.083 29.952 127.217 30.2853 127.414 30.584C127.617 30.8773 127.873 31.1093 128.182 31.28C128.497 31.4507 128.846 31.5387 129.23 31.544C129.635 31.544 130.003 31.4427 130.334 31.24C130.67 31.0373 130.945 30.7573 131.158 30.4L132.846 30.792C132.526 31.5013 132.043 32.0827 131.398 32.536C130.753 32.984 130.03 33.208 129.23 33.208ZM126.958 28.312H131.502C131.449 27.928 131.313 27.5813 131.094 27.272C130.881 26.9573 130.611 26.7093 130.286 26.528C129.966 26.3413 129.614 26.248 129.23 26.248C128.851 26.248 128.499 26.3387 128.174 26.52C127.854 26.7013 127.587 26.9493 127.374 27.264C127.166 27.5733 127.027 27.9227 126.958 28.312ZM139.715 30.728L141.203 31.536C140.841 32.0427 140.379 32.448 139.819 32.752C139.265 33.056 138.662 33.208 138.011 33.208C137.275 33.208 136.603 33.0187 135.995 32.64C135.393 32.2613 134.91 31.7547 134.547 31.12C134.19 30.48 134.011 29.7733 134.011 29C134.011 28.4133 134.115 27.8667 134.323 27.36C134.531 26.848 134.817 26.4 135.179 26.016C135.547 25.6267 135.974 25.3227 136.459 25.104C136.945 24.8853 137.462 24.776 138.011 24.776C138.662 24.776 139.265 24.928 139.819 25.232C140.379 25.536 140.841 25.944 141.203 26.456L139.715 27.264C139.491 26.9973 139.23 26.7947 138.931 26.656C138.633 26.512 138.326 26.44 138.011 26.44C137.574 26.44 137.177 26.56 136.819 26.8C136.467 27.0347 136.187 27.3467 135.979 27.736C135.777 28.12 135.675 28.5413 135.675 29C135.675 29.4533 135.779 29.8747 135.987 30.264C136.195 30.648 136.475 30.9573 136.827 31.192C137.185 31.4267 137.579 31.544 138.011 31.544C138.342 31.544 138.657 31.4693 138.955 31.32C139.254 31.1707 139.507 30.9733 139.715 30.728ZM146.872 26.664H145.192L145.184 33H143.52L143.528 26.664H142.256V25H143.528L143.52 22.488H145.184L145.192 25H146.872V26.664Z" fill="#292929"/>
<path d="M25.64 103H33.032V101.336H28.664C30.832 99.272 32.936 97.064 32.936 95.216C32.936 93.208 31.32 91.592 29.336 91.592C27.368 91.592 25.712 93.176 25.712 95.216H27.376C27.376 94.144 28.264 93.256 29.336 93.256C30.408 93.256 31.272 94.144 31.272 95.216C31.272 96.792 27.536 99.968 25.64 101.52V103ZM35.4964 103.208C35.9844 103.208 36.3844 102.824 36.3844 102.328C36.3844 101.848 35.9844 101.448 35.4964 101.448C35.0084 101.448 34.6244 101.848 34.6244 102.328C34.6244 102.824 35.0084 103.208 35.4964 103.208ZM39.3198 103H40.9838V91.8H38.4398L37.9838 93.464H39.3198V103ZM43.7856 103H45.7056L52.1696 91.8H50.2496L43.7856 103ZM45.1376 96.496C46.3376 96.496 47.3696 95.528 47.3696 94.264C47.3696 93.016 46.3696 92.032 45.1376 92.032C43.9376 92.032 42.9056 92.992 42.9056 94.264C42.9056 95.512 43.9216 96.496 45.1376 96.496ZM45.1376 95.32C44.5456 95.32 44.0816 94.848 44.0816 94.264C44.0816 93.672 44.5456 93.2 45.1376 93.2C45.7296 93.2 46.1936 93.672 46.1936 94.264C46.1936 94.848 45.7296 95.32 45.1376 95.32ZM50.8336 102.784C52.0656 102.784 53.0656 101.768 53.0656 100.544C53.0656 99.352 52.0976 98.304 50.8336 98.304C49.6336 98.304 48.5936 99.288 48.5936 100.544C48.5936 101.728 49.5856 102.784 50.8336 102.784ZM50.8336 101.608C50.2416 101.608 49.7616 101.128 49.7616 100.544C49.7616 99.96 50.2416 99.48 50.8336 99.48C51.4096 99.48 51.8896 99.96 51.8896 100.544C51.8896 101.128 51.4096 101.608 50.8336 101.608Z" fill="#01AD46"/>
<path d="M63.0829 103L65.9949 94.984H64.2269L62.0109 101.072L59.8029 94.984H58.0269L60.9469 103H63.0829ZM69.5788 103.152C71.1948 103.248 72.7308 102.224 72.7308 100.72C72.7628 99.36 71.4348 98.688 70.0188 98.224C69.2108 97.968 68.3628 97.896 68.3628 97.192C68.3628 96.472 69.0588 96.136 69.8908 96.168C70.5308 96.2 71.1708 96.56 71.4188 97.04L72.7388 96.256C72.1708 95.304 71.0348 94.728 69.7548 94.728C68.2028 94.728 66.8028 95.696 66.8028 97.232C66.8028 98.648 68.0748 99.336 69.6588 99.696C70.3628 99.88 71.1868 100.04 71.1868 100.744C71.1868 101.384 70.4828 101.72 69.7468 101.72C68.9788 101.72 68.2508 101.264 68.0348 100.824L66.6188 101.432C67.0588 102.44 68.3068 103.08 69.5788 103.152ZM77.9444 103H79.6084V91H77.9444V103ZM87.6371 95L87.7091 96.184C87.1171 95.36 86.2211 94.776 85.0611 94.776C82.7731 94.776 80.9331 96.632 80.9331 98.928C80.9331 101.288 82.8371 103.208 85.1971 103.208C86.2931 103.208 87.0931 102.664 87.5651 101.84L87.6291 103H89.3011V95H87.6371ZM85.1571 101.6C83.7891 101.6 82.6371 100.456 82.6371 99C82.6371 97.56 83.7571 96.392 85.1571 96.392C86.5491 96.392 87.5011 97.544 87.5011 99C87.5011 100.44 86.5651 101.6 85.1571 101.6ZM93.2975 103.152C94.9135 103.248 96.4495 102.224 96.4495 100.72C96.4815 99.36 95.1535 98.688 93.7375 98.224C92.9295 97.968 92.0815 97.896 92.0815 97.192C92.0815 96.472 92.7775 96.136 93.6095 96.168C94.2495 96.2 94.8895 96.56 95.1375 97.04L96.4575 96.256C95.8895 95.304 94.7535 94.728 93.4735 94.728C91.9215 94.728 90.5215 95.696 90.5215 97.232C90.5215 98.648 91.7935 99.336 93.3775 99.696C94.0815 99.88 94.9055 100.04 94.9055 100.744C94.9055 101.384 94.2015 101.72 93.4655 101.72C92.6975 101.72 91.9695 101.264 91.7535 100.824L90.3375 101.432C90.7775 102.44 92.0255 103.08 93.2975 103.152ZM102.043 96.664V95H100.363L100.355 92.488H98.6914L98.6994 95H97.4274V96.664H98.6994L98.6914 103H100.355L100.363 96.664H102.043ZM107.327 103H109.239L114.751 93.464V91.8H106.679V93.464H112.823L107.327 103ZM126.114 91V96.16C125.586 95.344 124.738 94.784 123.61 94.784C121.29 94.784 119.402 96.672 119.402 99C119.402 101.32 121.29 103.208 123.61 103.208C124.738 103.208 125.586 102.656 126.114 101.824V103H127.778V91H126.114ZM123.626 101.6C122.258 101.6 121.106 100.456 121.106 99C121.106 97.56 122.226 96.392 123.626 96.392C125.018 96.392 125.97 97.544 125.97 99C125.97 100.44 125.034 101.6 123.626 101.6ZM135.809 95L135.881 96.184C135.289 95.36 134.393 94.776 133.233 94.776C130.945 94.776 129.105 96.632 129.105 98.928C129.105 101.288 131.009 103.208 133.369 103.208C134.465 103.208 135.265 102.664 135.737 101.84L135.801 103H137.473V95H135.809ZM133.329 101.6C131.961 101.6 130.809 100.456 130.809 99C130.809 97.56 131.929 96.392 133.329 96.392C134.721 96.392 135.673 97.544 135.673 99C135.673 100.44 134.737 101.6 133.329 101.6ZM144.206 95L142.11 100.72L140.222 95H138.406L141.278 103L139.83 107H141.598L145.982 95H144.206ZM149.563 103.152C151.179 103.248 152.715 102.224 152.715 100.72C152.747 99.36 151.419 98.688 150.003 98.224C149.195 97.968 148.347 97.896 148.347 97.192C148.347 96.472 149.043 96.136 149.875 96.168C150.515 96.2 151.155 96.56 151.403 97.04L152.723 96.256C152.155 95.304 151.019 94.728 149.739 94.728C148.187 94.728 146.787 95.696 146.787 97.232C146.787 98.648 148.059 99.336 149.643 99.696C150.347 99.88 151.171 100.04 151.171 100.744C151.171 101.384 150.467 101.72 149.731 101.72C148.963 101.72 148.235 101.264 148.019 100.824L146.603 101.432C147.043 102.44 148.291 103.08 149.563 103.152Z" fill="#292929"/>
<path d="M23.2 72V68.73C23.85 68.24 24.62 67.635 25.51 66.915C26.4 66.185 27.315 65.4 28.255 64.56C29.195 63.71 30.065 62.86 30.865 62.01C31.665 61.16 32.315 60.35 32.815 59.58C33.325 58.81 33.58 58.15 33.58 57.6C33.58 56.99 33.43 56.435 33.13 55.935C32.83 55.425 32.43 55.02 31.93 54.72C31.44 54.42 30.89 54.27 30.28 54.27C29.67 54.27 29.115 54.42 28.615 54.72C28.115 55.02 27.715 55.425 27.415 55.935C27.115 56.435 26.965 56.99 26.965 57.6H23.305C23.305 56.28 23.625 55.095 24.265 54.045C24.905 52.985 25.75 52.15 26.8 51.54C27.86 50.92 29.02 50.61 30.28 50.61C31.56 50.61 32.725 50.925 33.775 51.555C34.825 52.175 35.665 53.015 36.295 54.075C36.925 55.135 37.24 56.31 37.24 57.6C37.24 58.28 37.115 58.965 36.865 59.655C36.615 60.345 36.265 61.04 35.815 61.74C35.365 62.44 34.835 63.15 34.225 63.87C33.615 64.58 32.94 65.31 32.2 66.06C31.47 66.8 30.7 67.56 29.89 68.34H37.345V72H23.2ZM42.9787 72V54.66H40.3387L41.3287 51H46.6387V72H42.9787ZM50.241 72V68.73C50.891 68.24 51.661 67.635 52.551 66.915C53.441 66.185 54.356 65.4 55.296 64.56C56.236 63.71 57.106 62.86 57.906 62.01C58.706 61.16 59.356 60.35 59.856 59.58C60.366 58.81 60.621 58.15 60.621 57.6C60.621 56.99 60.471 56.435 60.171 55.935C59.871 55.425 59.471 55.02 58.971 54.72C58.481 54.42 57.931 54.27 57.321 54.27C56.711 54.27 56.156 54.42 55.656 54.72C55.156 55.02 54.756 55.425 54.456 55.935C54.156 56.435 54.006 56.99 54.006 57.6H50.346C50.346 56.28 50.666 55.095 51.306 54.045C51.946 52.985 52.791 52.15 53.841 51.54C54.901 50.92 56.061 50.61 57.321 50.61C58.601 50.61 59.766 50.925 60.816 51.555C61.866 52.175 62.706 53.015 63.336 54.075C63.966 55.135 64.281 56.31 64.281 57.6C64.281 58.28 64.156 58.965 63.906 59.655C63.656 60.345 63.306 61.04 62.856 61.74C62.406 62.44 61.876 63.15 61.266 63.87C60.656 64.58 59.981 65.31 59.241 66.06C58.511 66.8 57.741 67.56 56.931 68.34H64.386V72H50.241ZM73.0497 70.5V64.83H67.3797V61.17H73.0497V55.5H76.7097V61.17H82.3797V64.83H76.7097V70.5H73.0497ZM92.5891 72V51H99.5491C100.999 51 102.354 51.275 103.614 51.825C104.884 52.365 105.999 53.12 106.959 54.09C107.929 55.05 108.684 56.165 109.224 57.435C109.774 58.695 110.049 60.05 110.049 61.5C110.049 62.95 109.774 64.31 109.224 65.58C108.684 66.84 107.929 67.955 106.959 68.925C105.999 69.885 104.884 70.64 103.614 71.19C102.354 71.73 100.999 72 99.5491 72H92.5891ZM96.2491 68.34H99.5491C100.479 68.34 101.354 68.165 102.174 67.815C103.004 67.455 103.734 66.965 104.364 66.345C104.994 65.715 105.489 64.99 105.849 64.17C106.209 63.34 106.389 62.45 106.389 61.5C106.389 60.55 106.209 59.665 105.849 58.845C105.489 58.025 104.994 57.3 104.364 56.67C103.734 56.04 103.009 55.55 102.189 55.2C101.369 54.84 100.489 54.66 99.5491 54.66H96.2491V68.34ZM118.877 72.39C117.497 72.39 116.237 72.035 115.097 71.325C113.967 70.615 113.062 69.665 112.382 68.475C111.712 67.275 111.377 65.95 111.377 64.5C111.377 63.4 111.572 62.375 111.962 61.425C112.352 60.465 112.887 59.625 113.567 58.905C114.257 58.175 115.057 57.605 115.967 57.195C116.877 56.785 117.847 56.58 118.877 56.58C120.257 56.58 121.512 56.935 122.642 57.645C123.782 58.355 124.687 59.31 125.357 60.51C126.037 61.71 126.377 63.04 126.377 64.5C126.377 65.59 126.182 66.61 125.792 67.56C125.402 68.51 124.862 69.35 124.172 70.08C123.492 70.8 122.697 71.365 121.787 71.775C120.887 72.185 119.917 72.39 118.877 72.39ZM118.877 68.73C119.607 68.73 120.262 68.535 120.842 68.145C121.422 67.755 121.877 67.24 122.207 66.6C122.547 65.96 122.717 65.26 122.717 64.5C122.717 63.72 122.542 63.01 122.192 62.37C121.852 61.72 121.387 61.205 120.797 60.825C120.217 60.435 119.577 60.24 118.877 60.24C118.157 60.24 117.507 60.435 116.927 60.825C116.347 61.215 115.887 61.735 115.547 62.385C115.207 63.035 115.037 63.74 115.037 64.5C115.037 65.29 115.212 66.005 115.562 66.645C115.912 67.285 116.377 67.795 116.957 68.175C117.547 68.545 118.187 68.73 118.877 68.73ZM142.452 62.52V72H138.792V63.48C138.792 62.89 138.647 62.355 138.357 61.875C138.067 61.385 137.677 61 137.187 60.72C136.707 60.43 136.172 60.285 135.582 60.285C134.992 60.285 134.452 60.43 133.962 60.72C133.482 61 133.097 61.385 132.807 61.875C132.527 62.355 132.387 62.89 132.387 63.48V72H128.727L128.712 57H132.372L132.387 58.335C132.897 57.795 133.507 57.37 134.217 57.06C134.927 56.74 135.692 56.58 136.512 56.58C137.602 56.58 138.597 56.85 139.497 57.39C140.397 57.92 141.112 58.635 141.642 59.535C142.182 60.425 142.452 61.42 142.452 62.52ZM151.748 72.39C150.368 72.39 149.108 72.035 147.968 71.325C146.838 70.615 145.933 69.66 145.253 68.46C144.583 67.26 144.248 65.935 144.248 64.485C144.248 63.395 144.443 62.375 144.833 61.425C145.223 60.465 145.758 59.625 146.438 58.905C147.128 58.175 147.928 57.605 148.838 57.195C149.748 56.785 150.718 56.58 151.748 56.58C152.918 56.58 153.988 56.83 154.958 57.33C155.938 57.82 156.768 58.495 157.448 59.355C158.128 60.215 158.623 61.195 158.933 62.295C159.243 63.395 159.313 64.545 159.143 65.745H148.178C148.318 66.305 148.548 66.81 148.868 67.26C149.188 67.7 149.593 68.055 150.083 68.325C150.573 68.585 151.128 68.72 151.748 68.73C152.388 68.74 152.968 68.59 153.488 68.28C154.018 67.96 154.458 67.53 154.808 66.99L158.543 67.86C157.933 69.19 157.023 70.28 155.813 71.13C154.603 71.97 153.248 72.39 151.748 72.39ZM148.058 63H155.438C155.328 62.4 155.093 61.86 154.733 61.38C154.383 60.89 153.948 60.5 153.428 60.21C152.908 59.92 152.348 59.775 151.748 59.775C151.148 59.775 150.593 59.92 150.083 60.21C149.573 60.49 149.138 60.875 148.778 61.365C148.428 61.845 148.188 62.39 148.058 63Z" fill="#292929"/>
<circle cx="33" cy="28" r="11" fill="#FD5444"/>
<path d="M32.6268 24.7568L33.008 25.112L33.3893 24.7573C33.6392 24.5226 33.9365 24.3363 34.2641 24.2088C34.5916 24.0814 34.943 24.0154 35.2981 24.0147C35.6531 24.014 36.0048 24.0785 36.333 24.2046C36.6611 24.3307 36.9593 24.5159 37.2104 24.7495C37.4614 24.9831 37.6604 25.2605 37.7959 25.5659C37.9314 25.8713 38.0008 26.1985 38 26.5289C37.9992 26.8593 37.9283 27.1862 37.7914 27.491C37.6544 27.7958 37.4541 28.0725 37.202 28.3051L33.3898 31.8528C33.3397 31.8995 33.2803 31.9365 33.2148 31.9618C33.1493 31.987 33.0792 32 33.0083 32C32.9374 32 32.8673 31.987 32.8018 31.9618C32.7364 31.9365 32.6769 31.8995 32.6268 31.8528L28.8141 28.3051C28.5585 28.0732 28.355 27.7965 28.2152 27.4909C28.0755 27.1853 28.0023 26.8569 28.0001 26.5248C27.9978 26.1926 28.0664 25.8634 28.2019 25.5562C28.3374 25.2489 28.5371 24.9698 28.7895 24.7349C29.0419 24.5 29.3418 24.3141 29.672 24.188C30.0022 24.0619 30.356 23.998 30.7129 24C31.0698 24.0021 31.4228 24.0701 31.7512 24.2001C32.0797 24.3301 32.3771 24.5195 32.6263 24.7573L32.6268 24.7568Z" fill="white"/>
<path d="M151.559 106.559L174.175 112.619L157.619 129.175L151.559 106.559Z" fill="#292929"/>
</svg>
