<svg width="21" height="21" viewBox="0 0 21 21" fill="none" xmlns="http://www.w3.org/2000/svg">
<path d="M13.0386 7.82254C12.3928 7.82032 11.7529 7.94547 11.1555 8.19082C10.5581 8.43617 10.0149 8.79691 9.5571 9.25239C9.09927 9.70787 8.73575 10.2492 8.48733 10.8453C8.23891 11.4414 8.11048 12.0807 8.10938 12.7265V17.681C8.10938 17.8821 8.18927 18.075 8.33149 18.2172C8.4737 18.3594 8.66659 18.4393 8.86771 18.4393H10.6372C10.8383 18.4393 11.0312 18.3594 11.1734 18.2172C11.3156 18.075 11.3955 17.8821 11.3955 17.681V12.7265C11.3953 12.4968 11.4436 12.2696 11.5371 12.0598C11.6306 11.85 11.7673 11.6623 11.9382 11.5089C12.1091 11.3554 12.3105 11.2397 12.5291 11.1693C12.7477 11.0989 12.9788 11.0754 13.2071 11.1003C13.6166 11.1518 13.993 11.3519 14.2647 11.6625C14.5365 11.9731 14.6849 12.3727 14.6817 12.7854V17.681C14.6817 17.8821 14.7615 18.075 14.9038 18.2172C15.046 18.3594 15.2389 18.4393 15.44 18.4393H17.2094C17.4106 18.4393 17.6035 18.3594 17.7457 18.2172C17.8879 18.075 17.9678 17.8821 17.9678 17.681V12.7265C17.9667 12.0807 17.8382 11.4414 17.5898 10.8453C17.3414 10.2492 16.9779 9.70787 16.5201 9.25239C16.0622 8.79691 15.5191 8.43617 14.9217 8.19082C14.3243 7.94547 13.6844 7.82032 13.0386 7.82254Z" fill="white"/>
<path d="M5.83414 8.58057H3.55912C3.1403 8.58057 2.80078 8.92009 2.80078 9.33891V17.6806C2.80078 18.0995 3.1403 18.439 3.55912 18.439H5.83414C6.25296 18.439 6.59248 18.0995 6.59248 17.6806V9.33891C6.59248 8.92009 6.25296 8.58057 5.83414 8.58057Z" fill="white"/>
<path d="M4.69663 7.06391C5.74368 7.06391 6.59248 6.21511 6.59248 5.16807C6.59248 4.12102 5.74368 3.27222 4.69663 3.27222C3.64958 3.27222 2.80078 4.12102 2.80078 5.16807C2.80078 6.21511 3.64958 7.06391 4.69663 7.06391Z" fill="white"/>
</svg>
