<svg width="16" height="14" viewBox="0 0 16 14" fill="none" xmlns="http://www.w3.org/2000/svg">
<path d="M5.00782 13.5961C6.25377 13.6378 7.49543 13.4293 8.65943 12.983C9.82343 12.5366 10.8861 11.8615 11.7848 10.9974C12.6834 10.1333 13.3997 9.09792 13.8913 7.95231C14.383 6.80671 14.64 5.57417 14.6472 4.32755C15.2181 3.62095 15.6421 2.80735 15.8942 1.93456C15.913 1.86561 15.9115 1.79268 15.8898 1.72457C15.8682 1.65645 15.8273 1.59606 15.7721 1.55065C15.7169 1.50524 15.6497 1.47676 15.5787 1.46863C15.5077 1.4605 15.4358 1.47308 15.3718 1.50484C15.0731 1.64863 14.7368 1.69508 14.4103 1.63764C14.0838 1.5802 13.7835 1.42176 13.5518 1.18465C13.256 0.860738 12.8982 0.599492 12.4996 0.416392C12.101 0.233293 11.6697 0.132065 11.2312 0.118708C10.7928 0.10535 10.3561 0.180134 9.94709 0.338629C9.53808 0.497123 9.16504 0.736103 8.85008 1.04141C8.41883 1.45905 8.10296 1.98115 7.93317 2.55697C7.76338 3.13279 7.74543 3.74274 7.88109 4.32755C5.05838 4.49607 3.1204 3.15633 1.57002 1.31947C1.52344 1.26672 1.46251 1.22868 1.39467 1.20999C1.32684 1.1913 1.25502 1.19276 1.188 1.21421C1.12099 1.23565 1.06166 1.27615 1.01728 1.33076C0.972893 1.38536 0.94537 1.4517 0.938068 1.52169C0.642711 3.16006 0.85577 4.84958 1.54863 6.36333C2.24149 7.87708 3.38097 9.14256 4.81402 9.98982C3.85316 11.0918 2.50379 11.7801 1.04761 11.9109C0.969591 11.9239 0.897574 11.9609 0.841633 12.0168C0.785693 12.0727 0.748629 12.1447 0.735628 12.2227C0.722627 12.3007 0.734341 12.3808 0.76913 12.4518C0.803918 12.5228 0.86004 12.5812 0.929642 12.6187C2.19651 13.2518 3.59161 13.5862 5.00782 13.5961Z" fill="white"/>
</svg>
