<svg width="121" height="43" viewBox="0 0 121 43" fill="none" xmlns="http://www.w3.org/2000/svg">
<path d="M59 25.9009L60.9736 25.5769L59 25.9009ZM82 15.4011L81.6669 13.429L82 15.4011ZM120.414 16.8153C121.195 16.0342 121.195 14.7679 120.414 13.9869L107.686 1.25894C106.905 0.47789 105.639 0.47789 104.858 1.25894C104.077 2.03999 104.077 3.30632 104.858 4.08737L116.172 15.4011L104.858 26.7148C104.077 27.4958 104.077 28.7622 104.858 29.5432C105.639 30.3243 106.905 30.3243 107.686 29.5432L120.414 16.8153ZM1.98264 24.6429C8.30371 21.0772 21.5318 15.7369 33.5788 14.3419C39.6124 13.6433 45.1047 13.965 49.2476 15.7758C53.2465 17.5237 56.1201 20.7049 57.0264 26.225L60.9736 25.5769C59.8449 18.7026 56.0761 14.3951 50.8497 12.1106C45.7673 9.8892 39.4515 9.63521 33.1188 10.3685C20.4333 11.8374 6.69629 17.3914 0.0173576 21.159L1.98264 24.6429ZM57.0264 26.225C58.3301 34.1657 55.8674 37.315 53.666 38.3365C51.1672 39.4959 47.9168 38.5853 46.376 36.6536C45.6662 35.7637 45.3468 34.6939 45.6091 33.4676C45.8821 32.1911 46.8435 30.4954 49.216 28.5831C54.0022 24.7254 63.9271 20.4823 82.3331 17.3731L81.6669 13.429C63.0729 16.5699 52.3103 20.9516 46.7059 25.4688C43.8831 27.7439 42.2233 30.1732 41.6976 32.6309C41.1611 35.139 41.865 37.4128 43.249 39.1479C45.8957 42.466 51.114 43.9303 55.3497 41.9648C59.8826 39.8614 62.4199 34.3859 60.9736 25.5769L57.0264 26.225ZM82.3331 17.3731C85.8624 16.777 90.6216 16.7663 96.8111 16.9253C102.933 17.0827 110.366 17.4011 119 17.4011V13.4011C110.434 13.4011 103.117 13.086 96.9139 12.9266C90.7784 12.769 85.6376 12.7583 81.6669 13.429L82.3331 17.3731Z" fill="white"/>
</svg>
