<svg width="210" height="217" viewBox="0 0 210 217" fill="none" xmlns="http://www.w3.org/2000/svg">
<path fill-rule="evenodd" clip-rule="evenodd" d="M105 210C162.99 210 210 162.99 210 105C210 47.0101 162.99 0 105 0C47.0101 0 0 47.0101 0 105C0 122.744 4.40163 139.461 12.1726 154.117C12.6275 154.975 12.7718 155.966 12.5613 156.914L0.375348 211.795C-0.292112 214.801 2.54481 217.402 5.48181 216.477L57.7439 200.018C58.7176 199.711 59.7701 199.791 60.6953 200.223C74.1566 206.497 89.1692 210 105 210Z" fill="#FD5444"/>
<path d="M64.3334 62.1953H143.667C148.175 62.1953 152.499 63.9864 155.688 67.1745C158.876 70.3626 160.667 74.6866 160.667 79.1953V124.529C160.667 129.037 158.876 133.361 155.688 136.549C152.499 139.738 148.175 141.529 143.667 141.529H104.238L67.722 168.774C66.8793 169.403 65.8783 169.785 64.831 169.877C63.7836 169.969 62.7313 169.768 61.7916 169.297C60.8519 168.825 60.0619 168.101 59.51 167.206C58.9582 166.312 58.6662 165.281 58.6667 164.229V141.529C55.6609 141.529 52.7782 140.335 50.6528 138.209C48.5274 136.084 47.3334 133.201 47.3334 130.195V79.1953C47.3334 74.6866 49.1244 70.3626 52.3126 67.1745C55.5007 63.9864 59.8247 62.1953 64.3334 62.1953ZM121 113.195C124.006 113.195 126.889 112.001 129.014 109.876C131.139 107.75 132.333 104.868 132.333 101.862C132.333 98.8562 131.139 95.9735 129.014 93.8481C126.889 91.7227 124.006 90.5286 121 90.5286C117.994 90.5286 115.112 91.7227 112.986 93.8481C110.861 95.9735 109.667 98.8562 109.667 101.862C109.667 104.868 110.861 107.75 112.986 109.876C115.112 112.001 117.994 113.195 121 113.195ZM87 113.195C90.0058 113.195 92.8885 112.001 95.0139 109.876C97.1393 107.75 98.3334 104.868 98.3334 101.862C98.3334 98.8562 97.1393 95.9735 95.0139 93.8481C92.8885 91.7227 90.0058 90.5286 87 90.5286C83.9943 90.5286 81.1116 91.7227 78.9862 93.8481C76.8608 95.9735 75.6667 98.8562 75.6667 101.862C75.6667 104.868 76.8608 107.75 78.9862 109.876C81.1116 112.001 83.9943 113.195 87 113.195Z" fill="white"/>
</svg>
