<?xml version="1.0" standalone="yes"?>
<svg xmlns="http://www.w3.org/2000/svg" width="500" height="500">
<path style="fill:#080e21; stroke:none;" d="M0 0L0 500L500 500L500 0L0 0z"/>
<path style="fill:#f8b50b; stroke:none;" d="M16 12L16 54L235 54L293 54L314.682 52.9722L317 42L317 13L286 12L223 12L16 12z"/>
<path style="fill:#a89813; stroke:none;" d="M316 12L317 13L316 12M316 14L317 15L316 14z"/>
<path style="fill:#f9f3e4; stroke:none;" d="M58 24L51 43L70 42C67.2336 36.1834 65.0743 25.2162 58 24M81 36L71 37C73.1888 44.3713 87.2819 44.9814 85.6235 36.1049C84.7893 31.6404 78.2546 31.6884 76 28L86 29C78.6848 15.962 61.7281 33.4946 81 36M97 24C97 30.0503 94.2994 41.7149 102 43L102 37C105.864 36.6998 107.348 35.9108 108 32L102 32L109 28L109 24L97 24M113 24L113 43L125 43C124.272 38.6381 122.176 38.1371 118 38L118 35L124 35L124 31L118 31L118 28L125 28L125 24L113 24M127 43L146 42L138 24C131.674 25.9795 128.09 36.8851 127 43M145 24L145 27L150 28C150 30.3172 148.619 42.9156 152.83 42.0787C156.528 41.3439 155 30.7347 155 28L160 28C158.057 22.1451 150.129 24 145 24M162 24C162 28.5014 160.894 34.8312 163.179 38.8912C165.717 43.3993 173.031 44.3318 175.972 39.6559C178.405 35.7883 177 28.4159 177 24L172 24L172 38L167 38L167 24L162 24M182 24C182 28.871 180.933 35.1593 182.317 39.8472C183.929 45.3042 186.792 39.6696 187 37L192 43L198 43C194.891 29.8912 198.158 24 182 24M201 24L201 43L213 43C212.272 38.6381 210.176 38.1371 206 38L206 35L212 35L212 31L206 31L206 28L213 28L213 24L201 24M217 24C217 28.3626 215.21 37.839 218.028 41.3966C225.659 51.0308 243.319 28.5446 226.985 24.3179C223.876 23.5135 220.19 24 217 24M249.044 24.858C237.889 29.6707 246.516 47.2227 257.945 41.9105C269.063 36.743 260.676 19.8396 249.044 24.858M267 24L266 42L272 43L272 34L282 43L283 24L278 24L278 32L267 24z"/>
<path style="fill:#f8b50b; stroke:none;" d="M187 28L188 33L192 28L187 28M222 28L222 38C230.227 37.3645 229.756 29.2264 222 28M253.065 28.9167C247.721 29.4461 248.535 38.1279 253.961 37.534C259.271 36.9525 258.469 28.3813 253.065 28.9167M136 32C135.146 34.6974 135.149 35.386 138 36L136 32M59 33L59 36L62 35L62 34L59 33z"/>
<path style="fill:#a89813; stroke:none;" d="M316 52L315 54L317 54L316 52z"/>
<path style="fill:#de2312; stroke:none;" d="M25 225L25 227C29.0606 230.976 28 236.649 28 242C28 255.254 28.0891 265.914 24 278C37.2586 278 55.5788 281.222 67.9599 275.779C81.8566 269.67 76.1135 253.861 65 249C72.7381 242.817 75.2829 231.035 63.9961 226.664C54.4109 222.952 34.9047 222.854 25 225M79 224L79 246C83.9979 239.285 83.7174 228.106 95 229L91 278C97.3663 278 112.243 280.795 116 275L112 275L112 228C124.005 230.173 120.988 241.102 129 246L129 225L79 224M183 264C175.446 266.9 170.302 272.186 162.04 267.482C150.942 261.162 145.342 229.104 163.996 228.673C174.749 228.424 173.759 246.41 183 248C183 243.159 185.016 232.42 181.397 228.728C178.032 225.295 170.486 224.97 166 224.666C147.066 223.384 131.077 233.533 132.04 254C132.868 271.599 147.625 278.026 163 278C171.117 277.986 183.853 274.178 183 264z"/>
<path style="fill:#a89813; stroke:none;" d="M218 224C223.492 241.846 223.712 260.351 218 278L246 278L240 274L240 260C246.596 259.982 255.428 259.456 260.907 255.347C269.153 249.163 269.483 234.293 260.906 228.26C249.986 220.579 230.607 224 218 224M270 224C271.022 227.064 273.869 228.892 274.683 232.043C277.088 241.357 277.211 261.612 274.683 270.892C273.884 273.823 271.015 275.165 270 278L301 278C304.837 278 311.064 279.174 314.566 277.397C319.801 274.74 318.178 257.719 313 256C311.911 268.399 303.745 273.992 292 274C292 268.694 290.922 243.083 302.024 256.254C303.203 257.653 304.065 259.439 305 261L307 261L307 242L305 242C301.565 246.908 298.71 248.502 293 250C291.904 245.396 289.767 233.295 293.603 229.618C300.922 222.603 309.733 237.713 311 243L312 243C311.678 236.802 308.895 231.05 302.961 228.367C297.53 225.912 290.496 225.923 290.044 233.005C289.432 242.6 286.393 264.126 290.603 272.682C292.029 275.58 296.316 275.063 299 274.985C307.755 274.728 312.976 267.176 314 259L315 259L315 277L275 277L276 226L302 226C305.101 226 309.971 225.178 312.397 227.603C316.394 231.601 313.721 241.509 312 246L313 247L314 247C316.002 242.359 318.589 228.485 313.566 225.028C310.48 222.904 304.557 224 301 224L270 224M320 225L320 227C325.342 230.277 324 236.387 324 242C324 255.29 323.93 265.858 320 278L366 278C366.295 272.628 368.848 257.644 363 256C360.478 268.181 354.526 273.992 342 274C342 269.023 339.07 250.901 347.961 253.512C352.272 254.777 352.897 259.574 357 261L357 242C352.659 243.397 350.451 250.033 345.147 248.928C339.704 247.794 338.191 224.6 351 229.654C352.456 230.228 353.788 231.204 354.956 232.228C356.514 233.592 357.88 235.203 358.91 237.001C360.645 240.027 361.135 243.663 362 247L365 247L363.972 225.603L353 224L320 225M370 225L370 227C375.342 230.277 374 236.387 374 242C374 255.29 373.93 265.858 370 278L396 277C390.862 269.864 392 262.512 392 254C395.492 254.041 398.978 254.032 401.258 257.148C404.922 262.156 401.811 269.818 405.603 274.852C412.317 283.765 426.368 276.415 427 267L421 270C421 262.662 421.455 254.43 413 252C414.691 249.729 416.779 247.622 417.853 244.961C427.661 220.644 383.313 221.065 370 225M455 268L456 268C452.922 255.359 417.293 251.293 432.653 232.301C434.079 230.538 435.99 229.121 438.004 228.1C440.83 226.667 443.891 226.254 447 226L447 227C427.269 236.734 463.167 248.593 467.258 255.015C474.84 266.92 461.833 276.768 451 277L451 276L456 269L455 269C447.655 283.888 435.715 265.989 431 259L429 259C427.8 263.059 426.489 270.98 429.603 274.49C436.952 282.774 462.55 279.229 468.451 270.907C483.933 249.07 446.435 248.384 443.353 235.27C442.03 229.638 449.862 227.144 453.96 228.859C459.081 231.002 461.58 237.406 464 242C470.784 239.748 468.761 228.779 462.956 226.225C447.959 219.626 415.03 230.874 431.419 250.907C437.844 258.76 449.781 258.818 455 268z"/>
<path style="fill:#f8b50b; stroke:none;" d="M223 226C223 241.165 226.952 262.953 221 277L239 277C238.233 270.933 236.202 263.698 241 259C238.385 254.247 233.496 227.523 243.019 227.752C258.019 228.112 250.972 251.939 244 257C258.493 262.198 273.105 244.392 262.786 231.761C254.941 222.157 233.964 226 223 226M276 226L275 277L315 277L315 259L314 259C312.502 265.923 298.613 284.049 291.028 272.682C289.181 269.915 289.995 265.153 290 262C290.015 252.557 288.463 241.29 290.228 232.019C291.341 226.176 297.503 226.384 301.985 228.367C308.316 231.169 311.654 237.351 312 244L314 244L312.972 227.603L303 226L276 226M325 226C327.749 240.806 328.485 262.628 324 277L353 277L363.972 275.397L365 258L364 258C362.578 264.13 360.027 270.71 353.996 273.682C349.436 275.929 341.162 276.218 340.148 269.981C338.621 260.586 340.015 249.527 340 240C339.995 236.848 339.181 232.084 341.028 229.318C348.612 217.958 361.721 238.884 363 245C364.479 241.476 365.808 229.73 362.397 227.028C359.948 225.088 354.91 226 352 226L325 226M375 226L374 277L391 277C388.788 265.086 390.005 252.074 390 240C389.999 236.535 388.713 229.062 393.148 227.712C398.338 226.132 402.426 232.771 402.891 237C403.725 244.574 400.752 247.882 395 252C408.889 257.156 399.384 268.569 408.228 275.397C413.169 279.211 422.898 277.403 424 271L421 272C418.442 263.716 420.568 255.789 411 252C412.988 249.078 415.585 246.347 416.848 243C425.022 221.343 385.798 226 375 226M451 276L451 277C462.603 276.903 475.502 266.618 467.258 254.043C461.908 245.883 429.712 239.885 447 227C434.126 221.977 425.197 239.749 432.086 249.675C437.424 257.367 450.047 256.85 454.681 265.105C457.27 269.715 454.479 273.133 451 276M455 226L466 240C466 229.925 464.658 228.38 455 226z"/>
<path style="fill:#080e21; stroke:none;" d="M46 248C66.2259 246.471 46.3022 219.26 46.0046 235.001L46 240L46 248M241 228L240 256C254.542 254.379 254.36 231.499 241 228M393 228L391 249C404.883 252.694 405.273 231.215 393 228z"/>
<path style="fill:#f8b50b; stroke:none;" d="M305 244L299 250L305 258L306 258L305 244M355 244L348 250L355 258L356 258L355 244z"/>
<path style="fill:#080e21; stroke:none;" d="M45 273C55.7443 276.169 65.0894 264.859 57.4113 255.228C55.4347 252.748 48.438 249.303 46.3133 253.333C43.7533 258.187 46.3417 267.365 45 273z"/>
<path style="fill:#f8b50b; stroke:none;" d="M430 261C430 273.032 432.174 276.734 445 277L445 276L430 261M424 269L425 270L424 269z"/>
</svg>
